<?xml version="1.0" encoding="UTF-8"?><svg xmlns="http://www.w3.org/2000/svg" xmlns:xlink="http://www.w3.org/1999/xlink" fill-opacity="1" color-rendering="auto" color-interpolation="auto" text-rendering="auto" stroke="black" stroke-linecap="square" width="692" stroke-miterlimit="10" shape-rendering="auto" stroke-opacity="1" fill="black" stroke-dasharray="none" font-weight="normal" stroke-width="1" height="604" font-family="'Dialog'" font-style="normal" stroke-linejoin="miter" font-size="12px" stroke-dashoffset="0" image-rendering="auto">
  <!--Generated by ySVG 2.5-->
  <defs id="genericDefs"/>
  <g>
    <defs id="defs1">
      <clipPath clipPathUnits="userSpaceOnUse" id="clipPath1">
        <path d="M0 0 L692 0 L692 604 L0 604 L0 0 Z"/>
      </clipPath>
      <clipPath clipPathUnits="userSpaceOnUse" id="clipPath2">
        <path d="M-23 133 L669 133 L669 737 L-23 737 L-23 133 Z"/>
      </clipPath>
    </defs>
    <g fill="rgb(255,204,0)" text-rendering="geometricPrecision" shape-rendering="geometricPrecision" transform="matrix(1,0,0,1,23,-133)" stroke="rgb(255,204,0)">
      <rect x="336" width="45" height="30" y="150" clip-path="url(#clipPath2)" stroke="none"/>
    </g>
    <g text-rendering="geometricPrecision" stroke-miterlimit="1.45" shape-rendering="geometricPrecision" transform="matrix(1,0,0,1,23,-133)" stroke-linecap="butt">
      <rect fill="none" x="336" width="45" height="30" y="150" clip-path="url(#clipPath2)"/>
      <text x="338.4902" xml:space="preserve" y="162.3633" clip-path="url(#clipPath2)" font-family="sans-serif" stroke="none">BASSE</text>
      <text x="338.4902" xml:space="preserve" y="177.0645" clip-path="url(#clipPath2)" font-family="sans-serif" stroke="none">BUSE</text>
    </g>
    <g fill="rgb(255,204,0)" text-rendering="geometricPrecision" shape-rendering="geometricPrecision" transform="matrix(1,0,0,1,23,-133)" stroke="rgb(255,204,0)">
      <rect x="336" width="45" height="30" y="240" clip-path="url(#clipPath2)" stroke="none"/>
    </g>
    <g text-rendering="geometricPrecision" stroke-miterlimit="1.45" shape-rendering="geometricPrecision" transform="matrix(1,0,0,1,23,-133)" stroke-linecap="butt">
      <rect fill="none" x="336" width="45" height="30" y="240" clip-path="url(#clipPath2)"/>
      <text x="342.4922" xml:space="preserve" y="252.3633" clip-path="url(#clipPath2)" font-family="sans-serif" stroke="none">ASSE</text>
      <text x="342.4922" xml:space="preserve" y="267.0645" clip-path="url(#clipPath2)" font-family="sans-serif" stroke="none">USE</text>
    </g>
    <g fill="rgb(255,204,0)" text-rendering="geometricPrecision" shape-rendering="geometricPrecision" transform="matrix(1,0,0,1,23,-133)" stroke="rgb(255,204,0)">
      <rect x="217.5" width="45" height="30" y="330" clip-path="url(#clipPath2)" stroke="none"/>
    </g>
    <g text-rendering="geometricPrecision" stroke-miterlimit="1.45" shape-rendering="geometricPrecision" transform="matrix(1,0,0,1,23,-133)" stroke-linecap="butt">
      <rect fill="none" x="217.5" width="45" height="30" y="330" clip-path="url(#clipPath2)"/>
      <text x="227.6631" xml:space="preserve" y="342.3633" clip-path="url(#clipPath2)" font-family="sans-serif" stroke="none">SSE</text>
      <text x="227.6631" xml:space="preserve" y="357.0645" clip-path="url(#clipPath2)" font-family="sans-serif" stroke="none">USE</text>
    </g>
    <g fill="rgb(255,204,0)" text-rendering="geometricPrecision" shape-rendering="geometricPrecision" transform="matrix(1,0,0,1,23,-133)" stroke="rgb(255,204,0)">
      <rect x="457.5" width="45" height="30" y="330" clip-path="url(#clipPath2)" stroke="none"/>
    </g>
    <g text-rendering="geometricPrecision" stroke-miterlimit="1.45" shape-rendering="geometricPrecision" transform="matrix(1,0,0,1,23,-133)" stroke-linecap="butt">
      <rect fill="none" x="457.5" width="45" height="30" y="330" clip-path="url(#clipPath2)"/>
      <text x="463.9922" xml:space="preserve" y="342.3633" clip-path="url(#clipPath2)" font-family="sans-serif" stroke="none">ASSE</text>
      <text x="463.9922" xml:space="preserve" y="357.0645" clip-path="url(#clipPath2)" font-family="sans-serif" stroke="none">SE</text>
    </g>
    <g fill="rgb(255,204,0)" text-rendering="geometricPrecision" shape-rendering="geometricPrecision" transform="matrix(1,0,0,1,23,-133)" stroke="rgb(255,204,0)">
      <rect x="547.5" width="45" height="30" y="420" clip-path="url(#clipPath2)" stroke="none"/>
    </g>
    <g text-rendering="geometricPrecision" stroke-miterlimit="1.45" shape-rendering="geometricPrecision" transform="matrix(1,0,0,1,23,-133)" stroke-linecap="butt">
      <rect fill="none" x="547.5" width="45" height="30" y="420" clip-path="url(#clipPath2)"/>
      <text x="553.9922" xml:space="preserve" y="432.3633" clip-path="url(#clipPath2)" font-family="sans-serif" stroke="none">ASSE</text>
      <text x="553.9922" xml:space="preserve" y="447.0645" clip-path="url(#clipPath2)" font-family="sans-serif" stroke="none">E</text>
    </g>
    <g fill="rgb(255,204,0)" text-rendering="geometricPrecision" shape-rendering="geometricPrecision" transform="matrix(1,0,0,1,23,-133)" stroke="rgb(255,204,0)">
      <rect x="112.5" width="45" height="30" y="420" clip-path="url(#clipPath2)" stroke="none"/>
    </g>
    <g text-rendering="geometricPrecision" stroke-miterlimit="1.45" shape-rendering="geometricPrecision" transform="matrix(1,0,0,1,23,-133)" stroke-linecap="butt">
      <rect fill="none" x="112.5" width="45" height="30" y="420" clip-path="url(#clipPath2)"/>
      <text x="122.6631" xml:space="preserve" y="432.3633" clip-path="url(#clipPath2)" font-family="sans-serif" stroke="none">SE</text>
      <text x="122.6631" xml:space="preserve" y="447.0645" clip-path="url(#clipPath2)" font-family="sans-serif" stroke="none">USE</text>
    </g>
    <g fill="rgb(255,204,0)" text-rendering="geometricPrecision" shape-rendering="geometricPrecision" transform="matrix(1,0,0,1,23,-133)" stroke="rgb(255,204,0)">
      <rect x="336" width="45" height="30" y="420" clip-path="url(#clipPath2)" stroke="none"/>
    </g>
    <g text-rendering="geometricPrecision" stroke-miterlimit="1.45" shape-rendering="geometricPrecision" transform="matrix(1,0,0,1,23,-133)" stroke-linecap="butt">
      <rect fill="none" x="336" width="45" height="30" y="420" clip-path="url(#clipPath2)"/>
      <text x="346.4941" xml:space="preserve" y="432.3633" clip-path="url(#clipPath2)" font-family="sans-serif" stroke="none">SSE	</text>
      <text x="346.4941" xml:space="preserve" y="447.0645" clip-path="url(#clipPath2)" font-family="sans-serif" stroke="none">SE </text>
    </g>
    <g fill="rgb(255,204,0)" text-rendering="geometricPrecision" shape-rendering="geometricPrecision" transform="matrix(1,0,0,1,23,-133)" stroke="rgb(255,204,0)">
      <rect x="336" width="45" height="30" y="510" clip-path="url(#clipPath2)" stroke="none"/>
    </g>
    <g text-rendering="geometricPrecision" stroke-miterlimit="1.45" shape-rendering="geometricPrecision" transform="matrix(1,0,0,1,23,-133)" stroke-linecap="butt">
      <rect fill="none" x="336" width="45" height="30" y="510" clip-path="url(#clipPath2)"/>
      <text x="350.4961" xml:space="preserve" y="522.3633" clip-path="url(#clipPath2)" font-family="sans-serif" stroke="none">SE	</text>
      <text x="350.4961" xml:space="preserve" y="537.0645" clip-path="url(#clipPath2)" font-family="sans-serif" stroke="none">E </text>
    </g>
    <g fill="rgb(255,204,0)" text-rendering="geometricPrecision" shape-rendering="geometricPrecision" transform="matrix(1,0,0,1,23,-133)" stroke="rgb(255,204,0)">
      <rect x="293.5" width="45" height="30" y="600" clip-path="url(#clipPath2)" stroke="none"/>
    </g>
    <g text-rendering="geometricPrecision" stroke-miterlimit="1.45" shape-rendering="geometricPrecision" transform="matrix(1,0,0,1,23,-133)" stroke-linecap="butt">
      <rect fill="none" x="293.5" width="45" height="30" y="600" clip-path="url(#clipPath2)"/>
      <text x="311.998" xml:space="preserve" y="612.3633" clip-path="url(#clipPath2)" font-family="sans-serif" stroke="none">E</text>
      <text x="311.998" xml:space="preserve" y="627.0645" clip-path="url(#clipPath2)" font-family="sans-serif" stroke="none">E</text>
    </g>
    <g fill="rgb(255,204,0)" text-rendering="geometricPrecision" shape-rendering="geometricPrecision" transform="matrix(1,0,0,1,23,-133)" stroke="rgb(255,204,0)">
      <rect x="-7.5" width="45" height="30" y="600" clip-path="url(#clipPath2)" stroke="none"/>
    </g>
    <g text-rendering="geometricPrecision" stroke-miterlimit="1.45" shape-rendering="geometricPrecision" transform="matrix(1,0,0,1,23,-133)" stroke-linecap="butt">
      <rect fill="none" x="-7.5" width="45" height="30" y="600" clip-path="url(#clipPath2)"/>
      <text x="-3.0146" xml:space="preserve" y="612.3633" clip-path="url(#clipPath2)" font-family="sans-serif" stroke="none">&lt;vide&gt;</text>
      <text x="-3.0146" xml:space="preserve" y="627.0645" clip-path="url(#clipPath2)" font-family="sans-serif" stroke="none">USE</text>
    </g>
    <g fill="rgb(255,204,0)" text-rendering="geometricPrecision" shape-rendering="geometricPrecision" transform="matrix(1,0,0,1,23,-133)" stroke="rgb(255,204,0)">
      <rect x="97.5" width="45" height="30" y="600" clip-path="url(#clipPath2)" stroke="none"/>
    </g>
    <g text-rendering="geometricPrecision" stroke-miterlimit="1.45" shape-rendering="geometricPrecision" transform="matrix(1,0,0,1,23,-133)" stroke-linecap="butt">
      <rect fill="none" x="97.5" width="45" height="30" y="600" clip-path="url(#clipPath2)"/>
      <text x="111.9961" xml:space="preserve" y="612.3633" clip-path="url(#clipPath2)" font-family="sans-serif" stroke="none">E</text>
      <text x="111.9961" xml:space="preserve" y="627.0645" clip-path="url(#clipPath2)" font-family="sans-serif" stroke="none">SE</text>
    </g>
    <g fill="rgb(255,204,0)" text-rendering="geometricPrecision" shape-rendering="geometricPrecision" transform="matrix(1,0,0,1,23,-133)" stroke="rgb(255,204,0)">
      <rect x="97.5" width="45" height="30" y="690" clip-path="url(#clipPath2)" stroke="none"/>
    </g>
    <g text-rendering="geometricPrecision" stroke-miterlimit="1.45" shape-rendering="geometricPrecision" transform="matrix(1,0,0,1,23,-133)" stroke-linecap="butt">
      <rect fill="none" x="97.5" width="45" height="30" y="690" clip-path="url(#clipPath2)"/>
      <text x="101.9854" xml:space="preserve" y="702.3633" clip-path="url(#clipPath2)" font-family="sans-serif" stroke="none">&lt;vide&gt;</text>
      <text x="101.9854" xml:space="preserve" y="717.0645" clip-path="url(#clipPath2)" font-family="sans-serif" stroke="none">SE</text>
    </g>
    <g fill="rgb(255,204,0)" text-rendering="geometricPrecision" shape-rendering="geometricPrecision" transform="matrix(1,0,0,1,23,-133)" stroke="rgb(255,204,0)">
      <rect x="472.5" width="45" height="30" y="510" clip-path="url(#clipPath2)" stroke="none"/>
    </g>
    <g text-rendering="geometricPrecision" stroke-miterlimit="1.45" shape-rendering="geometricPrecision" transform="matrix(1,0,0,1,23,-133)" stroke-linecap="butt">
      <rect fill="none" x="472.5" width="45" height="30" y="510" clip-path="url(#clipPath2)"/>
      <text x="482.9941" xml:space="preserve" y="522.3633" clip-path="url(#clipPath2)" font-family="sans-serif" stroke="none">SSE</text>
      <text x="482.9941" xml:space="preserve" y="537.0645" clip-path="url(#clipPath2)" font-family="sans-serif" stroke="none">E</text>
    </g>
    <g fill="rgb(255,204,0)" text-rendering="geometricPrecision" shape-rendering="geometricPrecision" transform="matrix(1,0,0,1,23,-133)" stroke="rgb(255,204,0)">
      <rect x="609" width="45" height="30" y="510" clip-path="url(#clipPath2)" stroke="none"/>
    </g>
    <g text-rendering="geometricPrecision" stroke-miterlimit="1.45" shape-rendering="geometricPrecision" transform="matrix(1,0,0,1,23,-133)" stroke-linecap="butt">
      <rect fill="none" x="609" width="45" height="30" y="510" clip-path="url(#clipPath2)"/>
      <text x="613.4854" xml:space="preserve" y="522.3633" clip-path="url(#clipPath2)" font-family="sans-serif" stroke="none">ASSE</text>
      <text x="613.4854" xml:space="preserve" y="537.0645" clip-path="url(#clipPath2)" font-family="sans-serif" stroke="none">&lt;vide&gt;</text>
    </g>
    <g fill="rgb(255,204,0)" text-rendering="geometricPrecision" shape-rendering="geometricPrecision" transform="matrix(1,0,0,1,23,-133)" stroke="rgb(255,204,0)">
      <rect x="427.5" width="45" height="30" y="600" clip-path="url(#clipPath2)" stroke="none"/>
    </g>
    <g text-rendering="geometricPrecision" stroke-miterlimit="1.45" shape-rendering="geometricPrecision" transform="matrix(1,0,0,1,23,-133)" stroke-linecap="butt">
      <rect fill="none" x="427.5" width="45" height="30" y="600" clip-path="url(#clipPath2)"/>
      <text x="441.9961" xml:space="preserve" y="612.3633" clip-path="url(#clipPath2)" font-family="sans-serif" stroke="none">SE</text>
      <text x="441.9961" xml:space="preserve" y="627.0645" clip-path="url(#clipPath2)" font-family="sans-serif" stroke="none">S</text>
    </g>
    <g fill="rgb(255,204,0)" text-rendering="geometricPrecision" shape-rendering="geometricPrecision" transform="matrix(1,0,0,1,23,-133)" stroke="rgb(255,204,0)">
      <rect x="517.5" width="45" height="30" y="600" clip-path="url(#clipPath2)" stroke="none"/>
    </g>
    <g text-rendering="geometricPrecision" stroke-miterlimit="1.45" shape-rendering="geometricPrecision" transform="matrix(1,0,0,1,23,-133)" stroke-linecap="butt">
      <rect fill="none" x="517.5" width="45" height="30" y="600" clip-path="url(#clipPath2)"/>
      <text x="521.9854" xml:space="preserve" y="612.3633" clip-path="url(#clipPath2)" font-family="sans-serif" stroke="none">SSE</text>
      <text x="521.9854" xml:space="preserve" y="627.0645" clip-path="url(#clipPath2)" font-family="sans-serif" stroke="none">&lt;vide&gt;</text>
    </g>
    <g fill="rgb(255,204,0)" text-rendering="geometricPrecision" shape-rendering="geometricPrecision" transform="matrix(1,0,0,1,23,-133)" stroke="rgb(255,204,0)">
      <rect x="427.5" width="45" height="30" y="690" clip-path="url(#clipPath2)" stroke="none"/>
    </g>
    <g text-rendering="geometricPrecision" stroke-miterlimit="1.45" shape-rendering="geometricPrecision" transform="matrix(1,0,0,1,23,-133)" stroke-linecap="butt">
      <rect fill="none" x="427.5" width="45" height="30" y="690" clip-path="url(#clipPath2)"/>
      <text x="431.9854" xml:space="preserve" y="702.3633" clip-path="url(#clipPath2)" font-family="sans-serif" stroke="none">E</text>
      <text x="431.9854" xml:space="preserve" y="717.0645" clip-path="url(#clipPath2)" font-family="sans-serif" stroke="none">&lt;vide&gt;</text>
    </g>
    <g fill="rgb(255,204,0)" text-rendering="geometricPrecision" shape-rendering="geometricPrecision" transform="matrix(1,0,0,1,23,-133)" stroke="rgb(255,204,0)">
      <rect x="293.5" width="45" height="30" y="690" clip-path="url(#clipPath2)" stroke="none"/>
    </g>
    <g text-rendering="geometricPrecision" stroke-miterlimit="1.45" shape-rendering="geometricPrecision" transform="matrix(1,0,0,1,23,-133)" stroke-linecap="butt">
      <rect fill="none" x="293.5" width="45" height="30" y="690" clip-path="url(#clipPath2)"/>
      <text x="297.9854" xml:space="preserve" y="702.3633" clip-path="url(#clipPath2)" font-family="sans-serif" stroke="none">&lt;vide&gt;</text>
      <text x="297.9854" xml:space="preserve" y="717.0645" clip-path="url(#clipPath2)" font-family="sans-serif" stroke="none">&lt;vide&gt;</text>
    </g>
    <g fill="rgb(255,204,0)" text-rendering="geometricPrecision" shape-rendering="geometricPrecision" transform="matrix(1,0,0,1,23,-133)" stroke="rgb(255,204,0)">
      <rect x="360.5" width="45" height="30" y="600" clip-path="url(#clipPath2)" stroke="none"/>
    </g>
    <g text-rendering="geometricPrecision" stroke-miterlimit="1.45" shape-rendering="geometricPrecision" transform="matrix(1,0,0,1,23,-133)" stroke-linecap="butt">
      <rect fill="none" x="360.5" width="45" height="30" y="600" clip-path="url(#clipPath2)"/>
      <text x="364.9854" xml:space="preserve" y="612.3633" clip-path="url(#clipPath2)" font-family="sans-serif" stroke="none">S</text>
      <text x="364.9854" xml:space="preserve" y="627.0645" clip-path="url(#clipPath2)" font-family="sans-serif" stroke="none">&lt;vide&gt;</text>
    </g>
    <g fill="rgb(255,204,0)" text-rendering="geometricPrecision" shape-rendering="geometricPrecision" transform="matrix(1,0,0,1,23,-133)" stroke="rgb(255,204,0)">
      <rect x="37.5" width="45" height="30" y="510" clip-path="url(#clipPath2)" stroke="none"/>
    </g>
    <g text-rendering="geometricPrecision" stroke-miterlimit="1.45" shape-rendering="geometricPrecision" transform="matrix(1,0,0,1,23,-133)" stroke-linecap="butt">
      <rect fill="none" x="37.5" width="45" height="30" y="510" clip-path="url(#clipPath2)"/>
      <text x="47.6631" xml:space="preserve" y="522.3633" clip-path="url(#clipPath2)" font-family="sans-serif" stroke="none">E</text>
      <text x="47.6631" xml:space="preserve" y="537.0645" clip-path="url(#clipPath2)" font-family="sans-serif" stroke="none">USE</text>
    </g>
    <g fill="rgb(255,204,0)" text-rendering="geometricPrecision" shape-rendering="geometricPrecision" transform="matrix(1,0,0,1,23,-133)" stroke="rgb(255,204,0)">
      <rect x="159" width="45" height="30" y="510" clip-path="url(#clipPath2)" stroke="none"/>
    </g>
    <g text-rendering="geometricPrecision" stroke-miterlimit="1.45" shape-rendering="geometricPrecision" transform="matrix(1,0,0,1,23,-133)" stroke-linecap="butt">
      <rect fill="none" x="159" width="45" height="30" y="510" clip-path="url(#clipPath2)"/>
      <text x="173.4961" xml:space="preserve" y="522.3633" clip-path="url(#clipPath2)" font-family="sans-serif" stroke="none">SE</text>
      <text x="173.4961" xml:space="preserve" y="537.0645" clip-path="url(#clipPath2)" font-family="sans-serif" stroke="none">SE</text>
      <path fill="none" d="M358.5 180 L358.5 226.25" stroke-width="3" clip-path="url(#clipPath2)" stroke="red"/>
      <path fill="red" d="M358.5 240 L366 225 L351 225 Z" stroke-width="3" clip-path="url(#clipPath2)" stroke="none"/>
      <path fill="none" d="M338.75 270 L270.6999 321.6836" stroke-width="3" clip-path="url(#clipPath2)" stroke="blue"/>
      <path fill="blue" d="M259.75 330 L276.2316 326.9003 L267.1591 314.9549 Z" stroke-width="3" clip-path="url(#clipPath2)" stroke="none"/>
      <path fill="none" d="M378.75 270 L448.7011 321.8156" stroke-width="3" clip-path="url(#clipPath2)" stroke="blue"/>
      <path fill="blue" d="M459.75 330 L452.1609 315.0449 L443.2324 327.0983 Z" stroke-width="3" clip-path="url(#clipPath2)" stroke="none"/>
      <path fill="none" d="M495 360 L545.2773 410.2773" stroke-width="3" clip-path="url(#clipPath2)" stroke="blue"/>
      <path fill="blue" d="M555 420 L549.6967 404.0901 L539.0901 414.6967 Z" stroke-width="3" clip-path="url(#clipPath2)" stroke="none"/>
      <path fill="none" d="M222.5 360 L162.9398 411.0516" stroke-width="3" clip-path="url(#clipPath2)" stroke="blue"/>
      <path fill="blue" d="M152.5 420 L168.7698 415.9325 L159.0079 404.5437 Z" stroke-width="3" clip-path="url(#clipPath2)" stroke="none"/>
      <path fill="none" d="M259.75 360 L327.8001 411.6836" stroke-width="3" clip-path="url(#clipPath2)" stroke="blue"/>
      <path fill="blue" d="M338.75 420 L331.3409 404.9549 L322.2684 416.9003 Z" stroke-width="3" clip-path="url(#clipPath2)" stroke="none"/>
      <path fill="none" d="M459.75 360 L389.7989 411.8156" stroke-width="3" clip-path="url(#clipPath2)" stroke="blue"/>
      <path fill="blue" d="M378.75 420 L395.2676 417.0983 L386.3391 405.0449 Z" stroke-width="3" clip-path="url(#clipPath2)" stroke="none"/>
      <path fill="none" d="M358.5 450 L358.5 496.25" stroke-width="3" clip-path="url(#clipPath2)" stroke="red"/>
      <path fill="red" d="M358.5 510 L366 495 L351 495 Z" stroke-width="3" clip-path="url(#clipPath2)" stroke="none"/>
      <path fill="none" d="M351.4167 540 L328.9547 587.5666" stroke-width="3" clip-path="url(#clipPath2)" stroke="blue"/>
      <path fill="blue" d="M323.0833 600 L336.2703 589.6388 L322.7066 583.2337 Z" stroke-width="3" clip-path="url(#clipPath2)" stroke="none"/>
      <path fill="none" d="M142.5 615 L279.75 615" stroke-width="3" clip-path="url(#clipPath2)" stroke="blue"/>
      <path fill="blue" d="M293.5 615 L278.5 607.5 L278.5 622.5 Z" stroke-width="3" clip-path="url(#clipPath2)" stroke="none"/>
      <path fill="none" d="M120 630 L120 676.25" stroke-width="3" clip-path="url(#clipPath2)" stroke="blue"/>
      <path fill="blue" d="M120 690 L127.5 675 L112.5 675 Z" stroke-width="3" clip-path="url(#clipPath2)" stroke="none"/>
      <path fill="none" d="M557.5 450 L516.3026 499.437" stroke-width="3" clip-path="url(#clipPath2)" stroke="blue"/>
      <path fill="blue" d="M507.5 510 L522.8644 503.2781 L511.3411 493.6753 Z" stroke-width="3" clip-path="url(#clipPath2)" stroke="none"/>
      <path fill="none" d="M580.25 450 L613.4924 498.6474" stroke-width="3" clip-path="url(#clipPath2)" stroke="blue"/>
      <path fill="blue" d="M621.25 510 L618.9794 493.3839 L606.5948 501.8468 Z" stroke-width="3" clip-path="url(#clipPath2)" stroke="none"/>
      <path fill="none" d="M487.5 540 L463.6492 587.7016" stroke-width="3" clip-path="url(#clipPath2)" stroke="blue"/>
      <path fill="blue" d="M457.5 600 L470.9164 589.9377 L457.5 583.2295 Z" stroke-width="3" clip-path="url(#clipPath2)" stroke="none"/>
      <path fill="none" d="M502.5 540 L526.3508 587.7016" stroke-width="3" clip-path="url(#clipPath2)" stroke="blue"/>
      <path fill="blue" d="M532.5 600 L532.5001 583.2295 L519.0836 589.9377 Z" stroke-width="3" clip-path="url(#clipPath2)" stroke="none"/>
      <path fill="none" d="M450 630 L450 676.25" stroke-width="3" clip-path="url(#clipPath2)" stroke="red"/>
      <path fill="red" d="M450 690 L457.5 675 L442.5 675 Z" stroke-width="3" clip-path="url(#clipPath2)" stroke="none"/>
      <path fill="none" d="M316 630 L316 676.25" stroke-width="3" clip-path="url(#clipPath2)" stroke="red"/>
      <path fill="red" d="M316 690 L323.5 675 L308.5 675 Z" stroke-width="3" clip-path="url(#clipPath2)" stroke="none"/>
      <path fill="none" d="M362.5833 540 L375.3051 586.7328" stroke-width="3" clip-path="url(#clipPath2)" stroke="blue"/>
      <path fill="blue" d="M378.9167 600 L382.2134 583.5567 L367.7401 587.4966 Z" stroke-width="3" clip-path="url(#clipPath2)" stroke="none"/>
      <path fill="none" d="M122.5 450 L81.3025 499.437" stroke-width="3" clip-path="url(#clipPath2)" stroke="blue"/>
      <path fill="blue" d="M72.5 510 L87.8644 503.278 L76.3411 493.6753 Z" stroke-width="3" clip-path="url(#clipPath2)" stroke="none"/>
      <path fill="none" d="M70 540 L102.3729 588.5593" stroke-width="3" clip-path="url(#clipPath2)" stroke="blue"/>
      <path fill="blue" d="M110 600 L107.9199 583.359 L95.4391 591.6795 Z" stroke-width="3" clip-path="url(#clipPath2)" stroke="none"/>
      <path fill="none" d="M52.5 540 L28.6492 587.7016" stroke-width="3" clip-path="url(#clipPath2)" stroke="blue"/>
      <path fill="blue" d="M22.5 600 L35.9164 589.9377 L22.5 583.2295 Z" stroke-width="3" clip-path="url(#clipPath2)" stroke="none"/>
      <path fill="none" d="M142.75 450 L167.4385 497.7841" stroke-width="3" clip-path="url(#clipPath2)" stroke="blue"/>
      <path fill="blue" d="M173.75 510 L173.5279 493.231 L160.2015 500.1163 Z" stroke-width="3" clip-path="url(#clipPath2)" stroke="none"/>
      <path fill="none" d="M203.9167 540 L282.1557 592.3533" stroke-width="3" clip-path="url(#clipPath2)" stroke="red"/>
      <path fill="red" d="M293.5833 600 L285.2878 585.4249 L276.9459 597.8914 Z" stroke-width="3" clip-path="url(#clipPath2)" stroke="none"/>
    </g>
  </g>
</svg>
