<?xml version="1.0" encoding="UTF-8"?><svg xmlns="http://www.w3.org/2000/svg" xmlns:xlink="http://www.w3.org/1999/xlink" fill-opacity="1" color-rendering="auto" color-interpolation="auto" text-rendering="auto" stroke="black" stroke-linecap="square" width="780" stroke-miterlimit="10" shape-rendering="auto" stroke-opacity="1" fill="black" stroke-dasharray="none" font-weight="normal" stroke-width="1" height="340" font-family="'Dialog'" font-style="normal" stroke-linejoin="miter" font-size="12px" stroke-dashoffset="0" image-rendering="auto">
  <!--Generated by ySVG 2.5-->
  <defs id="genericDefs"/>
  <g>
    <defs id="defs1">
      <clipPath clipPathUnits="userSpaceOnUse" id="clipPath1">
        <path d="M0 0 L780 0 L780 340 L0 340 L0 0 Z"/>
      </clipPath>
      <clipPath clipPathUnits="userSpaceOnUse" id="clipPath2">
        <path d="M-15 -15 L765 -15 L765 325 L-15 325 L-15 -15 Z"/>
      </clipPath>
    </defs>
    <g fill="yellow" text-rendering="geometricPrecision" shape-rendering="geometricPrecision" transform="matrix(1,0,0,1,15,15)" stroke="yellow">
      <rect x="440" y="70" clip-path="url(#clipPath2)" width="90" rx="4" ry="4" height="30" stroke="none"/>
    </g>
    <g text-rendering="geometricPrecision" stroke-miterlimit="1.45" shape-rendering="geometricPrecision" transform="matrix(1,0,0,1,15,15)" stroke-linecap="butt">
      <rect x="440" y="70" clip-path="url(#clipPath2)" fill="none" width="90" rx="4" ry="4" height="30"/>
      <text x="467.9932" xml:space="preserve" y="89.7139" clip-path="url(#clipPath2)" font-family="sans-serif" stroke="none">fibo(4)</text>
    </g>
    <g fill="rgb(255,204,0)" text-rendering="geometricPrecision" shape-rendering="geometricPrecision" transform="matrix(1,0,0,1,15,15)" stroke="rgb(255,204,0)">
      <rect x="550" y="140" clip-path="url(#clipPath2)" width="90" rx="4" ry="4" height="30" stroke="none"/>
    </g>
    <g text-rendering="geometricPrecision" stroke-miterlimit="1.45" shape-rendering="geometricPrecision" transform="matrix(1,0,0,1,15,15)" stroke-linecap="butt">
      <rect x="550" y="140" clip-path="url(#clipPath2)" fill="none" width="90" rx="4" ry="4" height="30"/>
      <text x="577.9932" xml:space="preserve" y="159.7139" clip-path="url(#clipPath2)" font-family="sans-serif" stroke="none">fibo(3)</text>
    </g>
    <g fill="rgb(255,153,0)" text-rendering="geometricPrecision" shape-rendering="geometricPrecision" transform="matrix(1,0,0,1,15,15)" stroke="rgb(255,153,0)">
      <rect x="330" y="140" clip-path="url(#clipPath2)" width="90" rx="4" ry="4" height="30" stroke="none"/>
    </g>
    <g text-rendering="geometricPrecision" stroke-miterlimit="1.45" shape-rendering="geometricPrecision" transform="matrix(1,0,0,1,15,15)" stroke-linecap="butt">
      <rect x="330" y="140" clip-path="url(#clipPath2)" fill="none" width="90" rx="4" ry="4" height="30"/>
      <text x="357.9932" xml:space="preserve" y="159.7139" clip-path="url(#clipPath2)" font-family="sans-serif" stroke="none">fibo(2)</text>
    </g>
    <g fill="rgb(255,102,0)" text-rendering="geometricPrecision" shape-rendering="geometricPrecision" transform="matrix(1,0,0,1,15,15)" stroke="rgb(255,102,0)">
      <rect x="275" y="210" clip-path="url(#clipPath2)" width="90" rx="4" ry="4" height="30" stroke="none"/>
    </g>
    <g text-rendering="geometricPrecision" stroke-miterlimit="1.45" shape-rendering="geometricPrecision" transform="matrix(1,0,0,1,15,15)" stroke-linecap="butt">
      <rect x="275" y="210" clip-path="url(#clipPath2)" fill="none" width="90" rx="4" ry="4" height="30"/>
      <text x="302.9932" xml:space="preserve" y="229.7139" clip-path="url(#clipPath2)" font-family="sans-serif" stroke="none">fibo(1)</text>
    </g>
    <g fill="rgb(255,153,0)" text-rendering="geometricPrecision" shape-rendering="geometricPrecision" transform="matrix(1,0,0,1,15,15)" stroke="rgb(255,153,0)">
      <rect x="385" y="210" clip-path="url(#clipPath2)" width="90" rx="4" ry="4" height="30" stroke="none"/>
    </g>
    <g text-rendering="geometricPrecision" stroke-miterlimit="1.45" shape-rendering="geometricPrecision" transform="matrix(1,0,0,1,15,15)" stroke-linecap="butt">
      <rect x="385" y="210" clip-path="url(#clipPath2)" fill="none" width="90" rx="4" ry="4" height="30"/>
      <text x="412.9932" xml:space="preserve" y="229.7139" clip-path="url(#clipPath2)" font-family="sans-serif" stroke="none">fibo(0)</text>
    </g>
    <g fill="rgb(255,153,0)" text-rendering="geometricPrecision" shape-rendering="geometricPrecision" transform="matrix(1,0,0,1,15,15)" stroke="rgb(255,153,0)">
      <rect x="605" y="210" clip-path="url(#clipPath2)" width="90" rx="4" ry="4" height="30" stroke="none"/>
    </g>
    <g text-rendering="geometricPrecision" stroke-miterlimit="1.45" shape-rendering="geometricPrecision" transform="matrix(1,0,0,1,15,15)" stroke-linecap="butt">
      <rect x="605" y="210" clip-path="url(#clipPath2)" fill="none" width="90" rx="4" ry="4" height="30"/>
      <text x="632.9932" xml:space="preserve" y="229.7139" clip-path="url(#clipPath2)" font-family="sans-serif" stroke="none">fibo(2)</text>
    </g>
    <g fill="rgb(255,102,0)" text-rendering="geometricPrecision" shape-rendering="geometricPrecision" transform="matrix(1,0,0,1,15,15)" stroke="rgb(255,102,0)">
      <rect x="550" y="280" clip-path="url(#clipPath2)" width="90" rx="4" ry="4" height="30" stroke="none"/>
    </g>
    <g text-rendering="geometricPrecision" stroke-miterlimit="1.45" shape-rendering="geometricPrecision" transform="matrix(1,0,0,1,15,15)" stroke-linecap="butt">
      <rect x="550" y="280" clip-path="url(#clipPath2)" fill="none" width="90" rx="4" ry="4" height="30"/>
      <text x="577.9932" xml:space="preserve" y="299.7139" clip-path="url(#clipPath2)" font-family="sans-serif" stroke="none">fibo(1)</text>
    </g>
    <g fill="rgb(255,153,0)" text-rendering="geometricPrecision" shape-rendering="geometricPrecision" transform="matrix(1,0,0,1,15,15)" stroke="rgb(255,153,0)">
      <rect x="660" y="280" clip-path="url(#clipPath2)" width="90" rx="4" ry="4" height="30" stroke="none"/>
    </g>
    <g text-rendering="geometricPrecision" stroke-miterlimit="1.45" shape-rendering="geometricPrecision" transform="matrix(1,0,0,1,15,15)" stroke-linecap="butt">
      <rect x="660" y="280" clip-path="url(#clipPath2)" fill="none" width="90" rx="4" ry="4" height="30"/>
      <text x="687.9932" xml:space="preserve" y="299.7139" clip-path="url(#clipPath2)" font-family="sans-serif" stroke="none">fibo(0)</text>
    </g>
    <g fill="rgb(255,102,0)" text-rendering="geometricPrecision" shape-rendering="geometricPrecision" transform="matrix(1,0,0,1,15,15)" stroke="rgb(255,102,0)">
      <rect x="495" y="210" clip-path="url(#clipPath2)" width="90" rx="4" ry="4" height="30" stroke="none"/>
    </g>
    <g text-rendering="geometricPrecision" stroke-miterlimit="1.45" shape-rendering="geometricPrecision" transform="matrix(1,0,0,1,15,15)" stroke-linecap="butt">
      <rect x="495" y="210" clip-path="url(#clipPath2)" fill="none" width="90" rx="4" ry="4" height="30"/>
      <text x="522.9932" xml:space="preserve" y="229.7139" clip-path="url(#clipPath2)" font-family="sans-serif" stroke="none">fibo(1)</text>
    </g>
    <g fill="rgb(255,204,0)" text-rendering="geometricPrecision" shape-rendering="geometricPrecision" transform="matrix(1,0,0,1,15,15)" stroke="rgb(255,204,0)">
      <rect x="55" y="70" clip-path="url(#clipPath2)" width="90" rx="4" ry="4" height="30" stroke="none"/>
    </g>
    <g text-rendering="geometricPrecision" stroke-miterlimit="1.45" shape-rendering="geometricPrecision" transform="matrix(1,0,0,1,15,15)" stroke-linecap="butt">
      <rect x="55" y="70" clip-path="url(#clipPath2)" fill="none" width="90" rx="4" ry="4" height="30"/>
      <text x="82.9932" xml:space="preserve" y="89.7139" clip-path="url(#clipPath2)" font-family="sans-serif" stroke="none">fibo(3)</text>
    </g>
    <g fill="rgb(255,153,0)" text-rendering="geometricPrecision" shape-rendering="geometricPrecision" transform="matrix(1,0,0,1,15,15)" stroke="rgb(255,153,0)">
      <rect x="110" y="140" clip-path="url(#clipPath2)" width="90" rx="4" ry="4" height="30" stroke="none"/>
    </g>
    <g text-rendering="geometricPrecision" stroke-miterlimit="1.45" shape-rendering="geometricPrecision" transform="matrix(1,0,0,1,15,15)" stroke-linecap="butt">
      <rect x="110" y="140" clip-path="url(#clipPath2)" fill="none" width="90" rx="4" ry="4" height="30"/>
      <text x="137.9932" xml:space="preserve" y="159.7139" clip-path="url(#clipPath2)" font-family="sans-serif" stroke="none">fibo(2)</text>
    </g>
    <g fill="rgb(255,102,0)" text-rendering="geometricPrecision" shape-rendering="geometricPrecision" transform="matrix(1,0,0,1,15,15)" stroke="rgb(255,102,0)">
      <rect x="55" y="210" clip-path="url(#clipPath2)" width="90" rx="4" ry="4" height="30" stroke="none"/>
    </g>
    <g text-rendering="geometricPrecision" stroke-miterlimit="1.45" shape-rendering="geometricPrecision" transform="matrix(1,0,0,1,15,15)" stroke-linecap="butt">
      <rect x="55" y="210" clip-path="url(#clipPath2)" fill="none" width="90" rx="4" ry="4" height="30"/>
      <text x="82.9932" xml:space="preserve" y="229.7139" clip-path="url(#clipPath2)" font-family="sans-serif" stroke="none">fibo(1)</text>
    </g>
    <g fill="rgb(255,153,0)" text-rendering="geometricPrecision" shape-rendering="geometricPrecision" transform="matrix(1,0,0,1,15,15)" stroke="rgb(255,153,0)">
      <rect x="165" y="210" clip-path="url(#clipPath2)" width="90" rx="4" ry="4" height="30" stroke="none"/>
    </g>
    <g text-rendering="geometricPrecision" stroke-miterlimit="1.45" shape-rendering="geometricPrecision" transform="matrix(1,0,0,1,15,15)" stroke-linecap="butt">
      <rect x="165" y="210" clip-path="url(#clipPath2)" fill="none" width="90" rx="4" ry="4" height="30"/>
      <text x="192.9932" xml:space="preserve" y="229.7139" clip-path="url(#clipPath2)" font-family="sans-serif" stroke="none">fibo(0)</text>
    </g>
    <g fill="rgb(255,102,0)" text-rendering="geometricPrecision" shape-rendering="geometricPrecision" transform="matrix(1,0,0,1,15,15)" stroke="rgb(255,102,0)">
      <rect x="0" y="140" clip-path="url(#clipPath2)" width="90" rx="4" ry="4" height="30" stroke="none"/>
    </g>
    <g text-rendering="geometricPrecision" stroke-miterlimit="1.45" shape-rendering="geometricPrecision" transform="matrix(1,0,0,1,15,15)" stroke-linecap="butt">
      <rect x="0" y="140" clip-path="url(#clipPath2)" fill="none" width="90" rx="4" ry="4" height="30"/>
      <text x="27.9932" xml:space="preserve" y="159.7139" clip-path="url(#clipPath2)" font-family="sans-serif" stroke="none">fibo(1)</text>
    </g>
    <g fill="yellow" text-rendering="geometricPrecision" shape-rendering="geometricPrecision" transform="matrix(1,0,0,1,15,15)" stroke="yellow">
      <rect x="247.5" y="0" clip-path="url(#clipPath2)" width="90" rx="4" ry="4" height="30" stroke="none"/>
    </g>
    <g text-rendering="geometricPrecision" stroke-miterlimit="1.45" shape-rendering="geometricPrecision" transform="matrix(1,0,0,1,15,15)" stroke-linecap="butt">
      <rect x="247.5" y="0" clip-path="url(#clipPath2)" fill="none" width="90" rx="4" ry="4" height="30"/>
      <text x="275.4932" xml:space="preserve" y="19.7139" clip-path="url(#clipPath2)" font-family="sans-serif" stroke="none">fibo(5)</text>
      <path fill="none" d="M508.5522 99.9878 L564.676 135.7029" clip-path="url(#clipPath2)"/>
      <path d="M571.4252 139.9979 L563.9857 129.3371 L563.8323 135.166 L558.6169 137.7737 Z" clip-path="url(#clipPath2)" stroke="none"/>
      <path fill="none" d="M461.4478 99.9878 L405.324 135.7029" clip-path="url(#clipPath2)"/>
      <path d="M398.5747 139.9979 L411.3831 137.7737 L406.1677 135.166 L406.0143 129.3371 Z" clip-path="url(#clipPath2)" stroke="none"/>
      <path fill="none" d="M363.2104 170.0049 L336.7368 203.6986" clip-path="url(#clipPath2)"/>
      <path d="M331.7943 209.9891 L343.1397 203.6424 L337.3546 202.9122 L335.2765 197.4642 Z" clip-path="url(#clipPath2)" stroke="none"/>
      <path fill="none" d="M386.7896 170.0049 L413.2632 203.6986" clip-path="url(#clipPath2)"/>
      <path d="M418.2057 209.9891 L414.7235 197.4642 L412.6454 202.9122 L406.8603 203.6424 Z" clip-path="url(#clipPath2)" stroke="none"/>
      <path fill="none" d="M606.7896 170.0049 L633.2632 203.6986" clip-path="url(#clipPath2)"/>
      <path d="M638.2057 209.9891 L634.7235 197.4642 L632.6454 202.9122 L626.8603 203.6424 Z" clip-path="url(#clipPath2)" stroke="none"/>
      <path fill="none" d="M638.2104 240.0049 L611.7368 273.6986" clip-path="url(#clipPath2)"/>
      <path d="M606.7943 279.9891 L618.1397 273.6424 L612.3546 272.9123 L610.2765 267.4642 Z" clip-path="url(#clipPath2)" stroke="none"/>
      <path fill="none" d="M661.7896 240.0049 L688.2632 273.6986" clip-path="url(#clipPath2)"/>
      <path d="M693.2057 279.9891 L689.7235 267.4642 L687.6454 272.9123 L681.8603 273.6424 Z" clip-path="url(#clipPath2)" stroke="none"/>
      <path fill="none" d="M583.2104 170.0049 L556.7368 203.6986" clip-path="url(#clipPath2)"/>
      <path d="M551.7943 209.9891 L563.1397 203.6424 L557.3546 202.9122 L555.2765 197.4642 Z" clip-path="url(#clipPath2)" stroke="none"/>
      <path fill="none" d="M111.7896 100.0049 L138.2632 133.6986" clip-path="url(#clipPath2)"/>
      <path d="M143.2057 139.9891 L139.7235 127.4642 L137.6453 132.9122 L131.8603 133.6424 Z" clip-path="url(#clipPath2)" stroke="none"/>
      <path fill="none" d="M143.2104 170.0049 L116.7368 203.6986" clip-path="url(#clipPath2)"/>
      <path d="M111.7943 209.9891 L123.1397 203.6424 L117.3547 202.9123 L115.2765 197.4642 Z" clip-path="url(#clipPath2)" stroke="none"/>
      <path fill="none" d="M166.7896 170.0049 L193.2632 203.6986" clip-path="url(#clipPath2)"/>
      <path d="M198.2057 209.9891 L194.7235 197.4642 L192.6453 202.9122 L186.8603 203.6424 Z" clip-path="url(#clipPath2)" stroke="none"/>
      <path fill="none" d="M88.2104 100.0049 L61.7368 133.6986" clip-path="url(#clipPath2)"/>
      <path d="M56.7943 139.9891 L68.1397 133.6424 L62.3547 132.9123 L60.2765 127.4642 Z" clip-path="url(#clipPath2)" stroke="none"/>
      <path fill="none" d="M333.7399 29.9963 L436.2323 67.2663" clip-path="url(#clipPath2)"/>
      <path d="M443.7506 70.0002 L434.1818 61.2003 L435.2925 66.9245 L430.7644 70.5983 Z" clip-path="url(#clipPath2)" stroke="none"/>
      <path fill="none" d="M251.2601 29.9963 L148.7677 67.2663" clip-path="url(#clipPath2)"/>
      <path d="M141.2494 70.0002 L154.2356 70.5983 L149.7075 66.9245 L150.8182 61.2003 Z" clip-path="url(#clipPath2)" stroke="none"/>
    </g>
  </g>
</svg>
