<?xml version="1.0" encoding="UTF-8"?><svg xmlns="http://www.w3.org/2000/svg" xmlns:xlink="http://www.w3.org/1999/xlink" fill-opacity="1" color-rendering="auto" color-interpolation="auto" text-rendering="auto" stroke="black" stroke-linecap="square" width="510" stroke-miterlimit="10" shape-rendering="auto" stroke-opacity="1" fill="black" stroke-dasharray="none" font-weight="normal" stroke-width="1" height="260" font-family="'Dialog'" font-style="normal" stroke-linejoin="miter" font-size="12px" stroke-dashoffset="0" image-rendering="auto">
  <!--Generated by ySVG 2.5-->
  <defs id="genericDefs"/>
  <g>
    <defs id="defs1">
      <clipPath clipPathUnits="userSpaceOnUse" id="clipPath1">
        <path d="M0 0 L510 0 L510 260 L0 260 L0 0 Z"/>
      </clipPath>
      <clipPath clipPathUnits="userSpaceOnUse" id="clipPath2">
        <path d="M30 -217 L540 -217 L540 43 L30 43 L30 -217 Z"/>
      </clipPath>
    </defs>
    <g fill="rgb(255,204,0)" text-rendering="geometricPrecision" shape-rendering="geometricPrecision" transform="matrix(1,0,0,1,-30,217)" stroke="rgb(255,204,0)">
      <circle r="15" clip-path="url(#clipPath2)" cx="60" cy="-140.8922" stroke="none"/>
    </g>
    <g text-rendering="geometricPrecision" stroke-miterlimit="1.45" shape-rendering="geometricPrecision" transform="matrix(1,0,0,1,-30,217)" stroke-linecap="butt">
      <circle fill="none" r="15" clip-path="url(#clipPath2)" cx="60" cy="-140.8922"/>
      <text x="56.6631" xml:space="preserve" y="-136.1783" clip-path="url(#clipPath2)" font-family="sans-serif" stroke="none">7</text>
    </g>
    <g fill="rgb(255,204,0)" text-rendering="geometricPrecision" shape-rendering="geometricPrecision" transform="matrix(1,0,0,1,-30,217)" stroke="rgb(255,204,0)">
      <circle r="15" clip-path="url(#clipPath2)" cx="60" cy="12.8413" stroke="none"/>
    </g>
    <g text-rendering="geometricPrecision" stroke-miterlimit="1.45" shape-rendering="geometricPrecision" transform="matrix(1,0,0,1,-30,217)" stroke-linecap="butt">
      <circle fill="none" r="15" clip-path="url(#clipPath2)" cx="60" cy="12.8413"/>
      <text x="56.6631" xml:space="preserve" y="17.5551" clip-path="url(#clipPath2)" font-family="sans-serif" stroke="none">6</text>
    </g>
    <g fill="rgb(255,204,0)" text-rendering="geometricPrecision" shape-rendering="geometricPrecision" transform="matrix(1,0,0,1,-30,217)" stroke="rgb(255,204,0)">
      <circle r="15" clip-path="url(#clipPath2)" cx="139.2938" cy="-54.5" stroke="none"/>
    </g>
    <g text-rendering="geometricPrecision" stroke-miterlimit="1.45" shape-rendering="geometricPrecision" transform="matrix(1,0,0,1,-30,217)" stroke-linecap="butt">
      <circle fill="none" r="15" clip-path="url(#clipPath2)" cx="139.2938" cy="-54.5"/>
      <text x="135.9568" xml:space="preserve" y="-49.7861" clip-path="url(#clipPath2)" font-family="sans-serif" stroke="none">5</text>
    </g>
    <g fill="rgb(255,204,0)" text-rendering="geometricPrecision" shape-rendering="geometricPrecision" transform="matrix(1,0,0,1,-30,217)" stroke="rgb(255,204,0)">
      <circle r="15" clip-path="url(#clipPath2)" cx="270" cy="-131.7965" stroke="none"/>
    </g>
    <g text-rendering="geometricPrecision" stroke-miterlimit="1.45" shape-rendering="geometricPrecision" transform="matrix(1,0,0,1,-30,217)" stroke-linecap="butt">
      <circle fill="none" r="15" clip-path="url(#clipPath2)" cx="270" cy="-131.7965"/>
      <text x="266.6631" xml:space="preserve" y="-127.0826" clip-path="url(#clipPath2)" font-family="sans-serif" stroke="none">4</text>
    </g>
    <g fill="rgb(255,204,0)" text-rendering="geometricPrecision" shape-rendering="geometricPrecision" transform="matrix(1,0,0,1,-30,217)" stroke="rgb(255,204,0)">
      <circle r="15" clip-path="url(#clipPath2)" cx="380.129" cy="-8.3731" stroke="none"/>
    </g>
    <g text-rendering="geometricPrecision" stroke-miterlimit="1.45" shape-rendering="geometricPrecision" transform="matrix(1,0,0,1,-30,217)" stroke-linecap="butt">
      <circle fill="none" r="15" clip-path="url(#clipPath2)" cx="380.129" cy="-8.3731"/>
      <text x="376.7921" xml:space="preserve" y="-3.6593" clip-path="url(#clipPath2)" font-family="sans-serif" stroke="none">3</text>
    </g>
    <g fill="rgb(255,204,0)" text-rendering="geometricPrecision" shape-rendering="geometricPrecision" transform="matrix(1,0,0,1,-30,217)" stroke="rgb(255,204,0)">
      <circle r="15" clip-path="url(#clipPath2)" cx="401.5054" cy="-115.251" stroke="none"/>
    </g>
    <g text-rendering="geometricPrecision" stroke-miterlimit="1.45" shape-rendering="geometricPrecision" transform="matrix(1,0,0,1,-30,217)" stroke-linecap="butt">
      <circle fill="none" r="15" clip-path="url(#clipPath2)" cx="401.5054" cy="-115.251"/>
      <text x="398.1685" xml:space="preserve" y="-110.5372" clip-path="url(#clipPath2)" font-family="sans-serif" stroke="none">2</text>
    </g>
    <g fill="rgb(255,204,0)" text-rendering="geometricPrecision" shape-rendering="geometricPrecision" transform="matrix(1,0,0,1,-30,217)" stroke="rgb(255,204,0)">
      <circle r="15" clip-path="url(#clipPath2)" cx="423.6045" cy="-186.0448" stroke="none"/>
    </g>
    <g text-rendering="geometricPrecision" stroke-miterlimit="1.45" shape-rendering="geometricPrecision" transform="matrix(1,0,0,1,-30,217)" stroke-linecap="butt">
      <circle fill="none" r="15" clip-path="url(#clipPath2)" cx="423.6045" cy="-186.0448"/>
      <text x="420.2676" xml:space="preserve" y="-181.3309" clip-path="url(#clipPath2)" font-family="sans-serif" stroke="none">1</text>
    </g>
    <g fill="rgb(255,204,0)" text-rendering="geometricPrecision" shape-rendering="geometricPrecision" transform="matrix(1,0,0,1,-30,217)" stroke="rgb(255,204,0)">
      <circle r="15" clip-path="url(#clipPath2)" cx="510" cy="7.5136" stroke="none"/>
    </g>
    <g text-rendering="geometricPrecision" stroke-miterlimit="1.45" shape-rendering="geometricPrecision" transform="matrix(1,0,0,1,-30,217)" stroke-linecap="butt">
      <circle fill="none" r="15" clip-path="url(#clipPath2)" cx="510" cy="7.5136"/>
      <text x="506.6631" xml:space="preserve" y="12.2275" clip-path="url(#clipPath2)" font-family="sans-serif" stroke="none">0</text>
      <path fill="none" d="M60 -125.8922 L60 -10.1587" clip-path="url(#clipPath2)"/>
      <path d="M60 -2.1587 L65 -14.1587 L60 -11.1587 L55 -14.1587 Z" clip-path="url(#clipPath2)" stroke="none"/>
      <rect x="52.665" y="-123.7093" clip-path="url(#clipPath2)" fill="white" width="14.6699" height="18.7012" stroke="none"/>
      <rect stroke-linecap="square" x="52.665" y="-123.7093" clip-path="url(#clipPath2)" fill="none" width="14.6699" height="18.7012" stroke-miterlimit="1.6"/>
      <text x="54.665" xml:space="preserve" y="-109.6449" clip-path="url(#clipPath2)" font-family="sans-serif" stroke="none">-1</text>
      <path fill="none" d="M74.5946 9.3351 L123.0076 -38.248" clip-path="url(#clipPath2)"/>
      <path d="M128.7132 -43.8557 L116.65 -39.0101 L122.2944 -37.547 L123.6597 -31.8782 Z" clip-path="url(#clipPath2)" stroke="none"/>
      <rect x="92.3119" y="-24.6383" clip-path="url(#clipPath2)" fill="white" width="14.6699" height="18.7012" stroke="none"/>
      <rect stroke-linecap="square" x="92.3119" y="-24.6383" clip-path="url(#clipPath2)" fill="none" width="14.6699" height="18.7012" stroke-miterlimit="1.6"/>
      <text x="94.3119" xml:space="preserve" y="-10.5739" clip-path="url(#clipPath2)" font-family="sans-serif" stroke="none">-1</text>
      <path fill="none" d="M75 -140.8922 L247.0102 -132.2002" clip-path="url(#clipPath2)"/>
      <path d="M255 -131.7965 L243.2676 -137.3957 L246.0115 -132.2507 L242.763 -127.4084 Z" clip-path="url(#clipPath2)" stroke="none"/>
      <rect x="142.2093" y="-146.4759" clip-path="url(#clipPath2)" fill="white" width="14.6699" height="18.7012" stroke="none"/>
      <rect stroke-linecap="square" x="142.2093" y="-146.4759" clip-path="url(#clipPath2)" fill="none" width="14.6699" height="18.7012" stroke-miterlimit="1.6"/>
      <text x="144.2093" xml:space="preserve" y="-132.4115" clip-path="url(#clipPath2)" font-family="sans-serif" stroke="none">-3</text>
      <path fill="none" d="M152.2881 -62.0152 L250.1294 -120.1926" clip-path="url(#clipPath2)"/>
      <path d="M257.0057 -124.2813 L244.1359 -122.4459 L249.2699 -119.6815 L249.2467 -113.8506 Z" clip-path="url(#clipPath2)" stroke="none"/>
      <rect x="159.2938" y="-79.8929" clip-path="url(#clipPath2)" fill="white" width="14.6699" height="18.7012" stroke="none"/>
      <rect stroke-linecap="square" x="159.2938" y="-79.8929" clip-path="url(#clipPath2)" fill="none" width="14.6699" height="18.7012" stroke-miterlimit="1.6"/>
      <text x="161.2938" xml:space="preserve" y="-65.8284" clip-path="url(#clipPath2)" font-family="sans-serif" stroke="none">-1</text>
      <path fill="none" d="M75 12.8413 L357.1503 -7.7897" clip-path="url(#clipPath2)"/>
      <path d="M365.129 -8.3731 L352.7963 -12.4847 L356.1529 -7.7168 L353.5255 -2.5113 Z" clip-path="url(#clipPath2)" stroke="none"/>
      <rect x="212.7295" y="-7.1165" clip-path="url(#clipPath2)" fill="white" width="14.6699" height="18.7012" stroke="none"/>
      <rect stroke-linecap="square" x="212.7295" y="-7.1165" clip-path="url(#clipPath2)" fill="none" width="14.6699" height="18.7012" stroke-miterlimit="1.6"/>
      <text x="214.7295" xml:space="preserve" y="6.9479" clip-path="url(#clipPath2)" font-family="sans-serif" stroke="none">-3</text>
      <path fill="none" d="M282.9893 -124.27 L362.2332 -22.2183" clip-path="url(#clipPath2)"/>
      <path d="M367.1396 -15.8996 L363.7291 -28.4442 L361.6198 -23.0081 L355.8307 -22.3111 Z" clip-path="url(#clipPath2)" stroke="none"/>
      <rect x="310.3388" y="-88.9533" clip-path="url(#clipPath2)" fill="white" width="14.6699" height="18.7012" stroke="none"/>
      <rect stroke-linecap="square" x="310.3388" y="-88.9533" clip-path="url(#clipPath2)" fill="none" width="14.6699" height="18.7012" stroke-miterlimit="1.6"/>
      <text x="312.3388" xml:space="preserve" y="-74.8889" clip-path="url(#clipPath2)" font-family="sans-serif" stroke="none">-1</text>
      <path fill="none" d="M154.2938 -54.5 L378.7659 -113.2262" clip-path="url(#clipPath2)"/>
      <path d="M386.5055 -115.251 L373.6307 -117.051 L377.7985 -112.9731 L376.1617 -107.3766 Z" clip-path="url(#clipPath2)" stroke="none"/>
      <rect x="263.0646" y="-94.2261" clip-path="url(#clipPath2)" fill="white" width="14.6699" height="18.7012" stroke="none"/>
      <rect stroke-linecap="square" x="263.0646" y="-94.2261" clip-path="url(#clipPath2)" fill="none" width="14.6699" height="18.7012" stroke-miterlimit="1.6"/>
      <text x="265.0646" xml:space="preserve" y="-80.1617" clip-path="url(#clipPath2)" font-family="sans-serif" stroke="none">-3</text>
      <path fill="none" d="M384.1463 -22.8422 L399.7549 -92.4449" clip-path="url(#clipPath2)"/>
      <path d="M401.5054 -100.251 L394.0008 -89.6359 L399.5361 -91.4691 L403.7584 -87.4478 Z" clip-path="url(#clipPath2)" stroke="none"/>
      <rect x="385.5504" y="-71.1627" clip-path="url(#clipPath2)" fill="white" width="14.6699" height="18.7012" stroke="none"/>
      <rect stroke-linecap="square" x="385.5504" y="-71.1627" clip-path="url(#clipPath2)" fill="none" width="14.6699" height="18.7012" stroke-miterlimit="1.6"/>
      <text x="387.5504" xml:space="preserve" y="-57.0982" clip-path="url(#clipPath2)" font-family="sans-serif" stroke="none">-1</text>
      <path fill="none" d="M405.9751 -129.5696 L416.7509 -164.0896" clip-path="url(#clipPath2)"/>
      <path d="M419.1348 -171.7262 L410.7862 -161.7612 L416.453 -163.1351 L420.3319 -158.7815 Z" clip-path="url(#clipPath2)" stroke="none"/>
      <rect x="403.5675" y="-154.7046" clip-path="url(#clipPath2)" fill="white" width="14.6699" height="18.7012" stroke="none"/>
      <rect stroke-linecap="square" x="403.5675" y="-154.7046" clip-path="url(#clipPath2)" fill="none" width="14.6699" height="18.7012" stroke-miterlimit="1.6"/>
      <text x="405.5674" xml:space="preserve" y="-140.6402" clip-path="url(#clipPath2)" font-family="sans-serif" stroke="none">-1</text>
      <path fill="none" d="M74.8857 -142.7407 L400.7798 -183.2104" clip-path="url(#clipPath2)"/>
      <path d="M408.7188 -184.1963 L396.1941 -187.6794 L399.7874 -183.0872 L397.4265 -177.7556 Z" clip-path="url(#clipPath2)" stroke="none"/>
      <rect x="234.4673" y="-172.8191" clip-path="url(#clipPath2)" fill="white" width="14.6699" height="18.7012" stroke="none"/>
      <rect stroke-linecap="square" x="234.4673" y="-172.8191" clip-path="url(#clipPath2)" fill="none" width="14.6699" height="18.7012" stroke-miterlimit="1.6"/>
      <text x="236.4673" xml:space="preserve" y="-158.7546" clip-path="url(#clipPath2)" font-family="sans-serif" stroke="none">-6</text>
      <path fill="none" d="M284.1438 -136.7916 L401.9173 -178.3855" clip-path="url(#clipPath2)"/>
      <path d="M409.4606 -181.0496 L396.4805 -181.7681 L400.9743 -178.0525 L399.8106 -172.3389 Z" clip-path="url(#clipPath2)" stroke="none"/>
      <rect x="339.4673" y="-168.2712" clip-path="url(#clipPath2)" fill="white" width="14.6699" height="18.7012" stroke="none"/>
      <rect stroke-linecap="square" x="339.4673" y="-168.2712" clip-path="url(#clipPath2)" fill="none" width="14.6699" height="18.7012" stroke-miterlimit="1.6"/>
      <text x="341.4673" xml:space="preserve" y="-154.2068" clip-path="url(#clipPath2)" font-family="sans-serif" stroke="none">-3</text>
      <path fill="none" d="M74.975 13.6006 L490.8182 17.4395" clip-path="url(#clipPath2)"/>
      <path d="M498.8179 17.5134 L486.8645 12.4028 L489.8183 17.4303 L486.7722 22.4024 Z" clip-path="url(#clipPath2)" stroke="none"/>
      <rect x="276.8473" y="6.1813" clip-path="url(#clipPath2)" fill="white" width="14.6699" height="18.7012" stroke="none"/>
      <rect stroke-linecap="square" x="276.8473" y="6.1813" clip-path="url(#clipPath2)" fill="none" width="14.6699" height="18.7012" stroke-miterlimit="1.6"/>
      <text x="278.8473" xml:space="preserve" y="20.2458" clip-path="url(#clipPath2)" font-family="sans-serif" stroke="none">-6</text>
      <path fill="none" d="M429.7184 -172.3474 L500.6253 -13.4892" clip-path="url(#clipPath2)"/>
      <path d="M503.8861 -6.1838 L503.5608 -19.1798 L500.2177 -14.4023 L494.4291 -15.1038 Z" clip-path="url(#clipPath2)" stroke="none"/>
      <rect x="453.4156" y="-112.1743" clip-path="url(#clipPath2)" fill="white" width="14.6699" height="18.7012" stroke="none"/>
      <rect stroke-linecap="square" x="453.4156" y="-112.1743" clip-path="url(#clipPath2)" fill="none" width="14.6699" height="18.7012" stroke-miterlimit="1.6"/>
      <text x="455.4156" xml:space="preserve" y="-98.1098" clip-path="url(#clipPath2)" font-family="sans-serif" stroke="none">-1</text>
      <path fill="none" d="M395.018 -6.5518 L487.1702 4.7209" clip-path="url(#clipPath2)"/>
      <path d="M495.111 5.6923 L483.8069 -0.7278 L486.1776 4.5995 L482.5927 9.1982 Z" clip-path="url(#clipPath2)" stroke="none"/>
      <rect x="433.7304" y="-10.2695" clip-path="url(#clipPath2)" fill="white" width="14.6699" height="18.7012" stroke="none"/>
      <rect stroke-linecap="square" x="433.7304" y="-10.2695" clip-path="url(#clipPath2)" fill="none" width="14.6699" height="18.7012" stroke-miterlimit="1.6"/>
      <text x="435.7304" xml:space="preserve" y="3.7949" clip-path="url(#clipPath2)" font-family="sans-serif" stroke="none">-3</text>
    </g>
  </g>
</svg>
