<?xml version="1.0" encoding="UTF-8"?><svg xmlns="http://www.w3.org/2000/svg" xmlns:xlink="http://www.w3.org/1999/xlink" fill-opacity="1" color-rendering="auto" color-interpolation="auto" text-rendering="auto" stroke="black" stroke-linecap="square" width="505" stroke-miterlimit="10" shape-rendering="auto" stroke-opacity="1" fill="black" stroke-dasharray="none" font-weight="normal" stroke-width="1" height="270" font-family="'Dialog'" font-style="normal" stroke-linejoin="miter" font-size="12px" stroke-dashoffset="0" image-rendering="auto">
  <!--Generated by ySVG 2.5-->
  <defs id="genericDefs"/>
  <g>
    <defs id="defs1">
      <clipPath clipPathUnits="userSpaceOnUse" id="clipPath1">
        <path d="M0 0 L505 0 L505 270 L0 270 L0 0 Z"/>
      </clipPath>
      <clipPath clipPathUnits="userSpaceOnUse" id="clipPath2">
        <path d="M-15 -15 L490 -15 L490 255 L-15 255 L-15 -15 Z"/>
      </clipPath>
    </defs>
    <g fill="rgb(255,204,0)" text-rendering="geometricPrecision" shape-rendering="geometricPrecision" transform="matrix(1,0,0,1,15,15)" stroke="rgb(255,204,0)">
      <rect x="165" y="0" clip-path="url(#clipPath2)" width="90" rx="4" ry="4" height="30" stroke="none"/>
    </g>
    <g text-rendering="geometricPrecision" stroke-miterlimit="1.45" shape-rendering="geometricPrecision" transform="matrix(1,0,0,1,15,15)" stroke-linecap="butt">
      <rect x="165" y="0" clip-path="url(#clipPath2)" fill="none" width="90" rx="4" ry="4" height="30"/>
      <text x="192.9932" xml:space="preserve" y="19.7139" clip-path="url(#clipPath2)" font-family="sans-serif" stroke="none">fibo(4)</text>
    </g>
    <g fill="rgb(255,204,0)" text-rendering="geometricPrecision" shape-rendering="geometricPrecision" transform="matrix(1,0,0,1,15,15)" stroke="rgb(255,204,0)">
      <rect x="275" y="70" clip-path="url(#clipPath2)" width="90" rx="4" ry="4" height="30" stroke="none"/>
    </g>
    <g text-rendering="geometricPrecision" stroke-miterlimit="1.45" shape-rendering="geometricPrecision" transform="matrix(1,0,0,1,15,15)" stroke-linecap="butt">
      <rect x="275" y="70" clip-path="url(#clipPath2)" fill="none" width="90" rx="4" ry="4" height="30"/>
      <text x="302.9932" xml:space="preserve" y="89.7139" clip-path="url(#clipPath2)" font-family="sans-serif" stroke="none">fibo(3)</text>
    </g>
    <g fill="rgb(255,153,0)" text-rendering="geometricPrecision" shape-rendering="geometricPrecision" transform="matrix(1,0,0,1,15,15)" stroke="rgb(255,153,0)">
      <rect x="55" y="70" clip-path="url(#clipPath2)" width="90" rx="4" ry="4" height="30" stroke="none"/>
    </g>
    <g text-rendering="geometricPrecision" stroke-miterlimit="1.45" shape-rendering="geometricPrecision" transform="matrix(1,0,0,1,15,15)" stroke-linecap="butt">
      <rect x="55" y="70" clip-path="url(#clipPath2)" fill="none" width="90" rx="4" ry="4" height="30"/>
      <text x="82.9932" xml:space="preserve" y="89.7139" clip-path="url(#clipPath2)" font-family="sans-serif" stroke="none">fibo(2)</text>
    </g>
    <g fill="rgb(255,102,0)" text-rendering="geometricPrecision" shape-rendering="geometricPrecision" transform="matrix(1,0,0,1,15,15)" stroke="rgb(255,102,0)">
      <rect x="0" y="140" clip-path="url(#clipPath2)" width="90" rx="4" ry="4" height="30" stroke="none"/>
    </g>
    <g text-rendering="geometricPrecision" stroke-miterlimit="1.45" shape-rendering="geometricPrecision" transform="matrix(1,0,0,1,15,15)" stroke-linecap="butt">
      <rect x="0" y="140" clip-path="url(#clipPath2)" fill="none" width="90" rx="4" ry="4" height="30"/>
      <text x="27.9932" xml:space="preserve" y="159.7139" clip-path="url(#clipPath2)" font-family="sans-serif" stroke="none">fibo(1)</text>
    </g>
    <g fill="rgb(255,153,0)" text-rendering="geometricPrecision" shape-rendering="geometricPrecision" transform="matrix(1,0,0,1,15,15)" stroke="rgb(255,153,0)">
      <rect x="110" y="140" clip-path="url(#clipPath2)" width="90" rx="4" ry="4" height="30" stroke="none"/>
    </g>
    <g text-rendering="geometricPrecision" stroke-miterlimit="1.45" shape-rendering="geometricPrecision" transform="matrix(1,0,0,1,15,15)" stroke-linecap="butt">
      <rect x="110" y="140" clip-path="url(#clipPath2)" fill="none" width="90" rx="4" ry="4" height="30"/>
      <text x="137.9932" xml:space="preserve" y="159.7139" clip-path="url(#clipPath2)" font-family="sans-serif" stroke="none">fibo(0)</text>
    </g>
    <g fill="rgb(255,153,0)" text-rendering="geometricPrecision" shape-rendering="geometricPrecision" transform="matrix(1,0,0,1,15,15)" stroke="rgb(255,153,0)">
      <rect x="330" y="140" clip-path="url(#clipPath2)" width="90" rx="4" ry="4" height="30" stroke="none"/>
    </g>
    <g text-rendering="geometricPrecision" stroke-miterlimit="1.45" shape-rendering="geometricPrecision" transform="matrix(1,0,0,1,15,15)" stroke-linecap="butt">
      <rect x="330" y="140" clip-path="url(#clipPath2)" fill="none" width="90" rx="4" ry="4" height="30"/>
      <text x="357.9932" xml:space="preserve" y="159.7139" clip-path="url(#clipPath2)" font-family="sans-serif" stroke="none">fibo(2)</text>
    </g>
    <g fill="rgb(255,102,0)" text-rendering="geometricPrecision" shape-rendering="geometricPrecision" transform="matrix(1,0,0,1,15,15)" stroke="rgb(255,102,0)">
      <rect x="275" y="210" clip-path="url(#clipPath2)" width="90" rx="4" ry="4" height="30" stroke="none"/>
    </g>
    <g text-rendering="geometricPrecision" stroke-miterlimit="1.45" shape-rendering="geometricPrecision" transform="matrix(1,0,0,1,15,15)" stroke-linecap="butt">
      <rect x="275" y="210" clip-path="url(#clipPath2)" fill="none" width="90" rx="4" ry="4" height="30"/>
      <text x="302.9932" xml:space="preserve" y="229.7139" clip-path="url(#clipPath2)" font-family="sans-serif" stroke="none">fibo(1)</text>
    </g>
    <g fill="rgb(255,153,0)" text-rendering="geometricPrecision" shape-rendering="geometricPrecision" transform="matrix(1,0,0,1,15,15)" stroke="rgb(255,153,0)">
      <rect x="385" y="210" clip-path="url(#clipPath2)" width="90" rx="4" ry="4" height="30" stroke="none"/>
    </g>
    <g text-rendering="geometricPrecision" stroke-miterlimit="1.45" shape-rendering="geometricPrecision" transform="matrix(1,0,0,1,15,15)" stroke-linecap="butt">
      <rect x="385" y="210" clip-path="url(#clipPath2)" fill="none" width="90" rx="4" ry="4" height="30"/>
      <text x="412.9932" xml:space="preserve" y="229.7139" clip-path="url(#clipPath2)" font-family="sans-serif" stroke="none">fibo(0)</text>
    </g>
    <g fill="rgb(255,102,0)" text-rendering="geometricPrecision" shape-rendering="geometricPrecision" transform="matrix(1,0,0,1,15,15)" stroke="rgb(255,102,0)">
      <rect x="220" y="140" clip-path="url(#clipPath2)" width="90" rx="4" ry="4" height="30" stroke="none"/>
    </g>
    <g text-rendering="geometricPrecision" stroke-miterlimit="1.45" shape-rendering="geometricPrecision" transform="matrix(1,0,0,1,15,15)" stroke-linecap="butt">
      <rect x="220" y="140" clip-path="url(#clipPath2)" fill="none" width="90" rx="4" ry="4" height="30"/>
      <text x="247.9932" xml:space="preserve" y="159.7139" clip-path="url(#clipPath2)" font-family="sans-serif" stroke="none">fibo(1)</text>
      <path fill="none" d="M233.5522 29.9878 L289.676 65.7029" clip-path="url(#clipPath2)"/>
      <path d="M296.4253 69.9979 L288.9857 59.3371 L288.8323 65.166 L283.6169 67.7737 Z" clip-path="url(#clipPath2)" stroke="none"/>
      <path fill="none" d="M186.4478 29.9878 L130.324 65.7029" clip-path="url(#clipPath2)"/>
      <path d="M123.5747 69.9979 L136.3831 67.7737 L131.1677 65.166 L131.0143 59.3371 Z" clip-path="url(#clipPath2)" stroke="none"/>
      <path fill="none" d="M88.2104 100.0049 L61.7368 133.6986" clip-path="url(#clipPath2)"/>
      <path d="M56.7943 139.9891 L68.1397 133.6424 L62.3547 132.9123 L60.2765 127.4642 Z" clip-path="url(#clipPath2)" stroke="none"/>
      <path fill="none" d="M111.7896 100.0049 L138.2632 133.6986" clip-path="url(#clipPath2)"/>
      <path d="M143.2057 139.9891 L139.7235 127.4642 L137.6453 132.9122 L131.8603 133.6424 Z" clip-path="url(#clipPath2)" stroke="none"/>
      <path fill="none" d="M331.7896 100.0049 L358.2632 133.6986" clip-path="url(#clipPath2)"/>
      <path d="M363.2057 139.9891 L359.7235 127.4642 L357.6454 132.9122 L351.8603 133.6424 Z" clip-path="url(#clipPath2)" stroke="none"/>
      <path fill="none" d="M363.2104 170.0049 L336.7368 203.6986" clip-path="url(#clipPath2)"/>
      <path d="M331.7943 209.9891 L343.1397 203.6424 L337.3546 202.9122 L335.2765 197.4642 Z" clip-path="url(#clipPath2)" stroke="none"/>
      <path fill="none" d="M386.7896 170.0049 L413.2632 203.6986" clip-path="url(#clipPath2)"/>
      <path d="M418.2057 209.9891 L414.7235 197.4642 L412.6454 202.9122 L406.8603 203.6424 Z" clip-path="url(#clipPath2)" stroke="none"/>
      <path fill="none" d="M308.2104 100.0049 L281.7368 133.6986" clip-path="url(#clipPath2)"/>
      <path d="M276.7943 139.9891 L288.1397 133.6424 L282.3546 132.9122 L280.2765 127.4642 Z" clip-path="url(#clipPath2)" stroke="none"/>
    </g>
  </g>
</svg>
