<?xml version="1.0" encoding="UTF-8"?><svg xmlns="http://www.w3.org/2000/svg" xmlns:xlink="http://www.w3.org/1999/xlink" fill-opacity="1" color-rendering="auto" color-interpolation="auto" text-rendering="auto" stroke="black" stroke-linecap="square" width="270" stroke-miterlimit="10" shape-rendering="auto" stroke-opacity="1" fill="black" stroke-dasharray="none" font-weight="normal" stroke-width="1" height="240" font-family="'Dialog'" font-style="normal" stroke-linejoin="miter" font-size="12px" stroke-dashoffset="0" image-rendering="auto">
  <!--Generated by ySVG 2.5-->
  <defs id="genericDefs"/>
  <g>
    <defs id="defs1">
      <clipPath clipPathUnits="userSpaceOnUse" id="clipPath1">
        <path d="M0 0 L270 0 L270 240 L0 240 L0 0 Z"/>
      </clipPath>
      <clipPath clipPathUnits="userSpaceOnUse" id="clipPath2">
        <path d="M-270 0 L0 0 L0 240 L-270 240 L-270 0 Z"/>
      </clipPath>
    </defs>
    <g fill="yellow" text-rendering="geometricPrecision" shape-rendering="geometricPrecision" transform="matrix(1,0,0,1,270,0)" stroke="yellow">
      <rect x="-105" y="15" clip-path="url(#clipPath2)" width="90" rx="4" ry="4" height="30" stroke="none"/>
    </g>
    <g text-rendering="geometricPrecision" stroke-miterlimit="1.45" shape-rendering="geometricPrecision" transform="matrix(1,0,0,1,270,0)" stroke-linecap="butt">
      <rect x="-105" y="15" clip-path="url(#clipPath2)" fill="none" width="90" rx="4" ry="4" height="30"/>
      <text x="-77.0068" xml:space="preserve" y="34.7139" clip-path="url(#clipPath2)" font-family="sans-serif" stroke="none">fibo(4)</text>
    </g>
    <g fill="rgb(255,204,0)" text-rendering="geometricPrecision" shape-rendering="geometricPrecision" transform="matrix(1,0,0,1,270,0)" stroke="rgb(255,204,0)">
      <rect x="-255" y="105" clip-path="url(#clipPath2)" width="90" rx="4" ry="4" height="30" stroke="none"/>
    </g>
    <g text-rendering="geometricPrecision" stroke-miterlimit="1.45" shape-rendering="geometricPrecision" transform="matrix(1,0,0,1,270,0)" stroke-linecap="butt">
      <rect x="-255" y="105" clip-path="url(#clipPath2)" fill="none" width="90" rx="4" ry="4" height="30"/>
      <text x="-227.0068" xml:space="preserve" y="124.7139" clip-path="url(#clipPath2)" font-family="sans-serif" stroke="none">fibo(3)</text>
    </g>
    <g fill="rgb(255,153,0)" text-rendering="geometricPrecision" shape-rendering="geometricPrecision" transform="matrix(1,0,0,1,270,0)" stroke="rgb(255,153,0)">
      <rect x="-105" y="105" clip-path="url(#clipPath2)" width="90" rx="4" ry="4" height="30" stroke="none"/>
    </g>
    <g text-rendering="geometricPrecision" stroke-miterlimit="1.45" shape-rendering="geometricPrecision" transform="matrix(1,0,0,1,270,0)" stroke-linecap="butt">
      <rect x="-105" y="105" clip-path="url(#clipPath2)" fill="none" width="90" rx="4" ry="4" height="30"/>
      <text x="-77.0068" xml:space="preserve" y="124.7139" clip-path="url(#clipPath2)" font-family="sans-serif" stroke="none">fibo(2)</text>
    </g>
    <g fill="rgb(255,153,0)" text-rendering="geometricPrecision" shape-rendering="geometricPrecision" transform="matrix(1,0,0,1,270,0)" stroke="rgb(255,153,0)">
      <rect x="-105" y="195" clip-path="url(#clipPath2)" width="90" rx="4" ry="4" height="30" stroke="none"/>
    </g>
    <g text-rendering="geometricPrecision" stroke-miterlimit="1.45" shape-rendering="geometricPrecision" transform="matrix(1,0,0,1,270,0)" stroke-linecap="butt">
      <rect x="-105" y="195" clip-path="url(#clipPath2)" fill="none" width="90" rx="4" ry="4" height="30"/>
      <text x="-77.0068" xml:space="preserve" y="214.7139" clip-path="url(#clipPath2)" font-family="sans-serif" stroke="none">fibo(0)</text>
    </g>
    <g fill="rgb(255,102,0)" text-rendering="geometricPrecision" shape-rendering="geometricPrecision" transform="matrix(1,0,0,1,270,0)" stroke="rgb(255,102,0)">
      <rect x="-255" y="195" clip-path="url(#clipPath2)" width="90" rx="4" ry="4" height="30" stroke="none"/>
    </g>
    <g text-rendering="geometricPrecision" stroke-miterlimit="1.45" shape-rendering="geometricPrecision" transform="matrix(1,0,0,1,270,0)" stroke-linecap="butt">
      <rect x="-255" y="195" clip-path="url(#clipPath2)" fill="none" width="90" rx="4" ry="4" height="30"/>
      <text x="-227.0068" xml:space="preserve" y="214.7139" clip-path="url(#clipPath2)" font-family="sans-serif" stroke="none">fibo(1)</text>
    </g>
    <g fill="yellow" text-rendering="geometricPrecision" shape-rendering="geometricPrecision" transform="matrix(1,0,0,1,270,0)" stroke="yellow">
      <rect x="-255" y="15" clip-path="url(#clipPath2)" width="90" rx="4" ry="4" height="30" stroke="none"/>
    </g>
    <g text-rendering="geometricPrecision" stroke-miterlimit="1.45" shape-rendering="geometricPrecision" transform="matrix(1,0,0,1,270,0)" stroke-linecap="butt">
      <rect x="-255" y="15" clip-path="url(#clipPath2)" fill="none" width="90" rx="4" ry="4" height="30"/>
      <text x="-227.0068" xml:space="preserve" y="34.7139" clip-path="url(#clipPath2)" font-family="sans-serif" stroke="none">fibo(5)</text>
      <path fill="none" d="M-85.0122 45.0073 L-178.1486 100.8892" clip-path="url(#clipPath2)"/>
      <path d="M-185.0085 105.0051 L-172.1461 103.1186 L-177.2911 100.3747 L-177.2911 94.5437 Z" clip-path="url(#clipPath2)" stroke="none"/>
      <path fill="none" d="M-164.9927 120 L-112.9859 120" clip-path="url(#clipPath2)"/>
      <path d="M-104.9859 120 L-116.9859 115 L-113.9859 120 L-116.9859 125 Z" clip-path="url(#clipPath2)" stroke="none"/>
      <path fill="none" d="M-60 44.9854 L-60 97.0191" clip-path="url(#clipPath2)"/>
      <path d="M-60 105.0191 L-55 93.0191 L-60 96.0191 L-65 93.0191 Z" clip-path="url(#clipPath2)" stroke="none"/>
      <path fill="none" d="M-60 134.9854 L-60 187.019" clip-path="url(#clipPath2)"/>
      <path d="M-60 195.019 L-55 183.019 L-60 186.019 L-65 183.019 Z" clip-path="url(#clipPath2)" stroke="none"/>
      <path fill="none" d="M-210 134.9854 L-210 187.019" clip-path="url(#clipPath2)"/>
      <path d="M-210 195.019 L-205 183.019 L-210 186.019 L-215 183.019 Z" clip-path="url(#clipPath2)" stroke="none"/>
      <path fill="none" d="M-85.0122 135.0073 L-178.1486 190.8892" clip-path="url(#clipPath2)"/>
      <path d="M-185.0085 195.0051 L-172.1461 193.1186 L-177.2911 190.3747 L-177.2911 184.5437 Z" clip-path="url(#clipPath2)" stroke="none"/>
      <path fill="none" d="M-164.9927 30 L-112.9859 30" clip-path="url(#clipPath2)"/>
      <path d="M-104.9859 30 L-116.9859 25 L-113.9859 30 L-116.9859 35 Z" clip-path="url(#clipPath2)" stroke="none"/>
      <path fill="none" d="M-210 44.9854 L-210 97.0191" clip-path="url(#clipPath2)"/>
      <path d="M-210 105.0191 L-205 93.0191 L-210 96.0191 L-215 93.0191 Z" clip-path="url(#clipPath2)" stroke="none"/>
    </g>
  </g>
</svg>
