<?xml version="1.0" encoding="utf-8" standalone="no"?>
<!DOCTYPE svg PUBLIC "-//W3C//DTD SVG 1.1//EN"
  "http://www.w3.org/Graphics/SVG/1.1/DTD/svg11.dtd">
<!-- Created with matplotlib (https://matplotlib.org/) -->
<svg height="345.6pt" version="1.1" viewBox="0 0 460.8 345.6" width="460.8pt" xmlns="http://www.w3.org/2000/svg" xmlns:xlink="http://www.w3.org/1999/xlink">
 <metadata>
  <rdf:RDF xmlns:cc="http://creativecommons.org/ns#" xmlns:dc="http://purl.org/dc/elements/1.1/" xmlns:rdf="http://www.w3.org/1999/02/22-rdf-syntax-ns#">
   <cc:Work>
    <dc:type rdf:resource="http://purl.org/dc/dcmitype/StillImage"/>
    <dc:date>2021-06-02T15:46:08.754720</dc:date>
    <dc:format>image/svg+xml</dc:format>
    <dc:creator>
     <cc:Agent>
      <dc:title>Matplotlib v3.3.3, https://matplotlib.org/</dc:title>
     </cc:Agent>
    </dc:creator>
   </cc:Work>
  </rdf:RDF>
 </metadata>
 <defs>
  <style type="text/css">*{stroke-linecap:butt;stroke-linejoin:round;}</style>
 </defs>
 <g id="figure_1">
  <g id="patch_1">
   <path d="M 0 345.6 
L 460.8 345.6 
L 460.8 0 
L 0 0 
z
" style="fill:#ffffff;"/>
  </g>
  <g id="axes_1">
   <g id="LineCollection_1">
    <path clip-path="url(#p94d0d98411)" d="M 30.763636 172.8 
L 130.581818 25.527273 
" style="fill:none;stroke:#000000;"/>
    <path clip-path="url(#p94d0d98411)" d="M 30.763636 172.8 
L 130.581818 320.072727 
" style="fill:none;stroke:#000000;"/>
    <path clip-path="url(#p94d0d98411)" d="M 130.581818 25.527273 
L 230.4 172.8 
" style="fill:none;stroke:#000000;"/>
    <path clip-path="url(#p94d0d98411)" d="M 130.581818 320.072727 
L 230.4 172.8 
" style="fill:none;stroke:#000000;"/>
    <path clip-path="url(#p94d0d98411)" d="M 230.4 172.8 
L 330.218182 25.527273 
" style="fill:none;stroke:#000000;"/>
    <path clip-path="url(#p94d0d98411)" d="M 230.4 172.8 
L 330.218182 320.072727 
" style="fill:none;stroke:#000000;"/>
    <path clip-path="url(#p94d0d98411)" d="M 330.218182 25.527273 
L 330.218182 320.072727 
" style="fill:none;stroke:#000000;"/>
    <path clip-path="url(#p94d0d98411)" d="M 330.218182 25.527273 
L 430.036364 172.8 
" style="fill:none;stroke:#000000;"/>
    <path clip-path="url(#p94d0d98411)" d="M 330.218182 320.072727 
L 430.036364 172.8 
" style="fill:none;stroke:#000000;"/>
   </g>
   <g id="text_1">
    <g id="patch_2">
     <path clip-path="url(#p94d0d98411)" d="M 83.044216 106.884564 
L 88.716373 98.431219 
Q 90.053621 96.438289 88.060691 95.101042 
L 81.631416 90.787027 
Q 79.638486 89.449779 78.301239 91.442709 
L 72.629081 99.896053 
Q 71.291834 101.888983 73.284764 103.226231 
L 79.714039 107.540246 
Q 81.706969 108.877494 83.044216 106.884564 
z
" style="fill:#ffffff;stroke:#ffffff;stroke-linejoin:miter;"/>
    </g>
    <g clip-path="url(#p94d0d98411)">
     <!-- 20 -->
     <g transform="translate(79.669729 104.620297)rotate(-56.13856)scale(0.08 -0.08)">
      <defs>
       <path d="M 19.1875 8.296875 
L 53.609375 8.296875 
L 53.609375 0 
L 7.328125 0 
L 7.328125 8.296875 
Q 12.9375 14.109375 22.625 23.890625 
Q 32.328125 33.6875 34.8125 36.53125 
Q 39.546875 41.84375 41.421875 45.53125 
Q 43.3125 49.21875 43.3125 52.78125 
Q 43.3125 58.59375 39.234375 62.25 
Q 35.15625 65.921875 28.609375 65.921875 
Q 23.96875 65.921875 18.8125 64.3125 
Q 13.671875 62.703125 7.8125 59.421875 
L 7.8125 69.390625 
Q 13.765625 71.78125 18.9375 73 
Q 24.125 74.21875 28.421875 74.21875 
Q 39.75 74.21875 46.484375 68.546875 
Q 53.21875 62.890625 53.21875 53.421875 
Q 53.21875 48.921875 51.53125 44.890625 
Q 49.859375 40.875 45.40625 35.40625 
Q 44.1875 33.984375 37.640625 27.21875 
Q 31.109375 20.453125 19.1875 8.296875 
z
" id="DejaVuSans-50"/>
       <path d="M 31.78125 66.40625 
Q 24.171875 66.40625 20.328125 58.90625 
Q 16.5 51.421875 16.5 36.375 
Q 16.5 21.390625 20.328125 13.890625 
Q 24.171875 6.390625 31.78125 6.390625 
Q 39.453125 6.390625 43.28125 13.890625 
Q 47.125 21.390625 47.125 36.375 
Q 47.125 51.421875 43.28125 58.90625 
Q 39.453125 66.40625 31.78125 66.40625 
z
M 31.78125 74.21875 
Q 44.046875 74.21875 50.515625 64.515625 
Q 56.984375 54.828125 56.984375 36.375 
Q 56.984375 17.96875 50.515625 8.265625 
Q 44.046875 -1.421875 31.78125 -1.421875 
Q 19.53125 -1.421875 13.0625 8.265625 
Q 6.59375 17.96875 6.59375 36.375 
Q 6.59375 54.828125 13.0625 64.515625 
Q 19.53125 74.21875 31.78125 74.21875 
z
" id="DejaVuSans-48"/>
      </defs>
      <use xlink:href="#DejaVuSans-50"/>
      <use x="63.623047" xlink:href="#DejaVuSans-48"/>
     </g>
    </g>
   </g>
   <g id="text_2">
    <g id="patch_3">
     <path clip-path="url(#p94d0d98411)" d="M 74.047121 247.817283 
L 76.883199 252.043955 
Q 78.220447 254.036885 80.213377 252.699637 
L 86.642651 248.385622 
Q 88.635581 247.048374 87.298334 245.055445 
L 84.462255 240.828772 
Q 83.125008 238.835843 81.132078 240.17309 
L 74.702803 244.487105 
Q 72.709873 245.824353 74.047121 247.817283 
z
" style="fill:#ffffff;stroke:#ffffff;stroke-linejoin:miter;"/>
    </g>
    <g clip-path="url(#p94d0d98411)">
     <!-- 6 -->
     <g transform="translate(77.421608 245.553017)rotate(-303.86144)scale(0.08 -0.08)">
      <defs>
       <path d="M 33.015625 40.375 
Q 26.375 40.375 22.484375 35.828125 
Q 18.609375 31.296875 18.609375 23.390625 
Q 18.609375 15.53125 22.484375 10.953125 
Q 26.375 6.390625 33.015625 6.390625 
Q 39.65625 6.390625 43.53125 10.953125 
Q 47.40625 15.53125 47.40625 23.390625 
Q 47.40625 31.296875 43.53125 35.828125 
Q 39.65625 40.375 33.015625 40.375 
z
M 52.59375 71.296875 
L 52.59375 62.3125 
Q 48.875 64.0625 45.09375 64.984375 
Q 41.3125 65.921875 37.59375 65.921875 
Q 27.828125 65.921875 22.671875 59.328125 
Q 17.53125 52.734375 16.796875 39.40625 
Q 19.671875 43.65625 24.015625 45.921875 
Q 28.375 48.1875 33.59375 48.1875 
Q 44.578125 48.1875 50.953125 41.515625 
Q 57.328125 34.859375 57.328125 23.390625 
Q 57.328125 12.15625 50.6875 5.359375 
Q 44.046875 -1.421875 33.015625 -1.421875 
Q 20.359375 -1.421875 13.671875 8.265625 
Q 6.984375 17.96875 6.984375 36.375 
Q 6.984375 53.65625 15.1875 63.9375 
Q 23.390625 74.21875 37.203125 74.21875 
Q 40.921875 74.21875 44.703125 73.484375 
Q 48.484375 72.75 52.59375 71.296875 
z
" id="DejaVuSans-54"/>
      </defs>
      <use xlink:href="#DejaVuSans-54"/>
     </g>
    </g>
   </g>
   <g id="text_3">
    <g id="patch_4">
     <path clip-path="url(#p94d0d98411)" d="M 173.865302 100.544555 
L 176.701381 104.771228 
Q 178.038628 106.764157 180.031558 105.42691 
L 186.460833 101.112895 
Q 188.453763 99.775647 187.116516 97.782717 
L 184.280437 93.556045 
Q 182.94319 91.563115 180.95026 92.900363 
L 174.520985 97.214378 
Q 172.528055 98.551626 173.865302 100.544555 
z
" style="fill:#ffffff;stroke:#ffffff;stroke-linejoin:miter;"/>
    </g>
    <g clip-path="url(#p94d0d98411)">
     <!-- 2 -->
     <g transform="translate(177.239789 98.280289)rotate(-303.86144)scale(0.08 -0.08)">
      <use xlink:href="#DejaVuSans-50"/>
     </g>
    </g>
   </g>
   <g id="text_4">
    <g id="patch_5">
     <path clip-path="url(#p94d0d98411)" d="M 182.862398 254.157291 
L 188.534555 245.703947 
Q 189.871802 243.711017 187.878873 242.373769 
L 181.449598 238.059754 
Q 179.456668 236.722506 178.11942 238.715436 
L 172.447263 247.168781 
Q 171.110016 249.161711 173.102946 250.498958 
L 179.53222 254.812973 
Q 181.52515 256.150221 182.862398 254.157291 
z
" style="fill:#ffffff;stroke:#ffffff;stroke-linejoin:miter;"/>
    </g>
    <g clip-path="url(#p94d0d98411)">
     <!-- 17 -->
     <g transform="translate(179.487911 251.893025)rotate(-56.13856)scale(0.08 -0.08)">
      <defs>
       <path d="M 12.40625 8.296875 
L 28.515625 8.296875 
L 28.515625 63.921875 
L 10.984375 60.40625 
L 10.984375 69.390625 
L 28.421875 72.90625 
L 38.28125 72.90625 
L 38.28125 8.296875 
L 54.390625 8.296875 
L 54.390625 0 
L 12.40625 0 
z
" id="DejaVuSans-49"/>
       <path d="M 8.203125 72.90625 
L 55.078125 72.90625 
L 55.078125 68.703125 
L 28.609375 0 
L 18.3125 0 
L 43.21875 64.59375 
L 8.203125 64.59375 
z
" id="DejaVuSans-55"/>
      </defs>
      <use xlink:href="#DejaVuSans-49"/>
      <use x="63.623047" xlink:href="#DejaVuSans-55"/>
     </g>
    </g>
   </g>
   <g id="text_5">
    <g id="patch_6">
     <path clip-path="url(#p94d0d98411)" d="M 282.68058 106.884564 
L 288.352737 98.431219 
Q 289.689984 96.438289 287.697054 95.101042 
L 281.26778 90.787027 
Q 279.27485 89.449779 277.937602 91.442709 
L 272.265445 99.896053 
Q 270.928198 101.888983 272.921127 103.226231 
L 279.350402 107.540246 
Q 281.343332 108.877494 282.68058 106.884564 
z
" style="fill:#ffffff;stroke:#ffffff;stroke-linejoin:miter;"/>
    </g>
    <g clip-path="url(#p94d0d98411)">
     <!-- 10 -->
     <g transform="translate(279.306093 104.620297)rotate(-56.13856)scale(0.08 -0.08)">
      <use xlink:href="#DejaVuSans-49"/>
      <use x="63.623047" xlink:href="#DejaVuSans-48"/>
     </g>
    </g>
   </g>
   <g id="text_6">
    <g id="patch_7">
     <path clip-path="url(#p94d0d98411)" d="M 272.265445 245.703947 
L 277.937602 254.157291 
Q 279.27485 256.150221 281.26778 254.812973 
L 287.697054 250.498958 
Q 289.689984 249.161711 288.352737 247.168781 
L 282.68058 238.715436 
Q 281.343332 236.722506 279.350402 238.059754 
L 272.921127 242.373769 
Q 270.928198 243.711017 272.265445 245.703947 
z
" style="fill:#ffffff;stroke:#ffffff;stroke-linejoin:miter;"/>
    </g>
    <g clip-path="url(#p94d0d98411)">
     <!-- 15 -->
     <g transform="translate(275.639932 243.43968)rotate(-303.86144)scale(0.08 -0.08)">
      <defs>
       <path d="M 10.796875 72.90625 
L 49.515625 72.90625 
L 49.515625 64.59375 
L 19.828125 64.59375 
L 19.828125 46.734375 
Q 21.96875 47.46875 24.109375 47.828125 
Q 26.265625 48.1875 28.421875 48.1875 
Q 40.625 48.1875 47.75 41.5 
Q 54.890625 34.8125 54.890625 23.390625 
Q 54.890625 11.625 47.5625 5.09375 
Q 40.234375 -1.421875 26.90625 -1.421875 
Q 22.3125 -1.421875 17.546875 -0.640625 
Q 12.796875 0.140625 7.71875 1.703125 
L 7.71875 11.625 
Q 12.109375 9.234375 16.796875 8.0625 
Q 21.484375 6.890625 26.703125 6.890625 
Q 35.15625 6.890625 40.078125 11.328125 
Q 45.015625 15.765625 45.015625 23.390625 
Q 45.015625 31 40.078125 35.4375 
Q 35.15625 39.890625 26.703125 39.890625 
Q 22.75 39.890625 18.8125 39.015625 
Q 14.890625 38.140625 10.796875 36.28125 
z
" id="DejaVuSans-53"/>
      </defs>
      <use xlink:href="#DejaVuSans-49"/>
      <use x="63.623047" xlink:href="#DejaVuSans-53"/>
     </g>
    </g>
   </g>
   <g id="text_7">
    <g id="patch_8">
     <path clip-path="url(#p94d0d98411)" d="M 323.946932 170.255 
L 323.946932 175.345 
Q 323.946932 177.745 326.346932 177.745 
L 334.089432 177.745 
Q 336.489432 177.745 336.489432 175.345 
L 336.489432 170.255 
Q 336.489432 167.855 334.089432 167.855 
L 326.346932 167.855 
Q 323.946932 167.855 323.946932 170.255 
z
" style="fill:#ffffff;stroke:#ffffff;stroke-linejoin:miter;"/>
    </g>
    <g clip-path="url(#p94d0d98411)">
     <!-- 6 -->
     <g transform="translate(328.010682 170.255)rotate(-270)scale(0.08 -0.08)">
      <use xlink:href="#DejaVuSans-54"/>
     </g>
    </g>
   </g>
   <g id="text_8">
    <g id="patch_9">
     <path clip-path="url(#p94d0d98411)" d="M 373.501666 100.544555 
L 376.337745 104.771228 
Q 377.674992 106.764157 379.667922 105.42691 
L 386.097197 101.112895 
Q 388.090127 99.775647 386.752879 97.782717 
L 383.916801 93.556045 
Q 382.579553 91.563115 380.586623 92.900363 
L 374.157349 97.214378 
Q 372.164419 98.551626 373.501666 100.544555 
z
" style="fill:#ffffff;stroke:#ffffff;stroke-linejoin:miter;"/>
    </g>
    <g clip-path="url(#p94d0d98411)">
     <!-- 2 -->
     <g transform="translate(376.876153 98.280289)rotate(-303.86144)scale(0.08 -0.08)">
      <use xlink:href="#DejaVuSans-50"/>
     </g>
    </g>
   </g>
   <g id="text_9">
    <g id="patch_10">
     <path clip-path="url(#p94d0d98411)" d="M 383.916801 252.043955 
L 386.752879 247.817283 
Q 388.090127 245.824353 386.097197 244.487105 
L 379.667922 240.17309 
Q 377.674992 238.835843 376.337745 240.828772 
L 373.501666 245.055445 
Q 372.164419 247.048374 374.157349 248.385622 
L 380.586623 252.699637 
Q 382.579553 254.036885 383.916801 252.043955 
z
" style="fill:#ffffff;stroke:#ffffff;stroke-linejoin:miter;"/>
    </g>
    <g clip-path="url(#p94d0d98411)">
     <!-- 6 -->
     <g transform="translate(380.542314 249.779689)rotate(-56.13856)scale(0.08 -0.08)">
      <use xlink:href="#DejaVuSans-54"/>
     </g>
    </g>
   </g>
   <g id="PathCollection_1">
    <defs>
     <path d="M 0 13.228757 
C 3.508307 13.228757 6.873396 11.834891 9.354143 9.354143 
C 11.834891 6.873396 13.228757 3.508307 13.228757 0 
C 13.228757 -3.508307 11.834891 -6.873396 9.354143 -9.354143 
C 6.873396 -11.834891 3.508307 -13.228757 0 -13.228757 
C -3.508307 -13.228757 -6.873396 -11.834891 -9.354143 -9.354143 
C -11.834891 -6.873396 -13.228757 -3.508307 -13.228757 0 
C -13.228757 3.508307 -11.834891 6.873396 -9.354143 9.354143 
C -6.873396 11.834891 -3.508307 13.228757 0 13.228757 
z
" id="m95c1087f91" style="stroke:#1f78b4;"/>
    </defs>
    <g clip-path="url(#p94d0d98411)">
     <use style="fill:#1f78b4;stroke:#1f78b4;" x="30.763636" xlink:href="#m95c1087f91" y="172.8"/>
     <use style="fill:#1f78b4;stroke:#1f78b4;" x="130.581818" xlink:href="#m95c1087f91" y="25.527273"/>
     <use style="fill:#1f78b4;stroke:#1f78b4;" x="130.581818" xlink:href="#m95c1087f91" y="320.072727"/>
     <use style="fill:#1f78b4;stroke:#1f78b4;" x="230.4" xlink:href="#m95c1087f91" y="172.8"/>
     <use style="fill:#1f78b4;stroke:#1f78b4;" x="330.218182" xlink:href="#m95c1087f91" y="25.527273"/>
     <use style="fill:#1f78b4;stroke:#1f78b4;" x="330.218182" xlink:href="#m95c1087f91" y="320.072727"/>
     <use style="fill:#1f78b4;stroke:#1f78b4;" x="430.036364" xlink:href="#m95c1087f91" y="172.8"/>
    </g>
   </g>
   <g id="text_10">
    <g clip-path="url(#p94d0d98411)">
     <!-- A : ∞ -->
     <g style="fill:#ffffff;" transform="translate(20.805511 175.0075)scale(0.08 -0.08)">
      <defs>
       <path d="M 34.1875 63.1875 
L 20.796875 26.90625 
L 47.609375 26.90625 
z
M 28.609375 72.90625 
L 39.796875 72.90625 
L 67.578125 0 
L 57.328125 0 
L 50.6875 18.703125 
L 17.828125 18.703125 
L 11.1875 0 
L 0.78125 0 
z
" id="DejaVuSans-65"/>
       <path id="DejaVuSans-32"/>
       <path d="M 11.71875 12.40625 
L 22.015625 12.40625 
L 22.015625 0 
L 11.71875 0 
z
M 11.71875 51.703125 
L 22.015625 51.703125 
L 22.015625 39.3125 
L 11.71875 39.3125 
z
" id="DejaVuSans-58"/>
       <path d="M 45.5625 17.046875 
Q 44.046875 18.796875 41.65625 22.90625 
Q 38.375 17.046875 35.5 14.453125 
Q 31.890625 11.328125 26.265625 11.328125 
Q 19.671875 11.328125 15.328125 16.265625 
Q 10.75 21.4375 10.75 29.984375 
Q 10.75 38.1875 15.328125 43.75 
Q 19.4375 48.6875 26.375 48.6875 
Q 29.9375 48.6875 32.5625 47.21875 
Q 35.640625 45.609375 37.75 42.828125 
Q 39.703125 40.328125 41.65625 36.96875 
Q 44.921875 42.828125 47.796875 45.40625 
Q 51.421875 48.53125 57.03125 48.53125 
Q 63.625 48.53125 67.96875 43.609375 
Q 72.5625 38.421875 72.5625 29.890625 
Q 72.5625 21.6875 67.96875 16.109375 
Q 63.875 11.1875 56.9375 11.1875 
Q 53.375 11.1875 50.734375 12.640625 
Q 48.09375 13.96875 45.5625 17.046875 
z
M 25.734375 17.71875 
Q 33.796875 17.71875 38.625 29.4375 
Q 32.421875 42.234375 25.734375 42.234375 
Q 20.84375 42.234375 18.359375 38.71875 
Q 15.671875 34.96875 15.671875 29.984375 
Q 15.671875 24.515625 18.359375 21.140625 
Q 21.09375 17.71875 25.734375 17.71875 
z
M 57.5625 42.140625 
Q 50.296875 42.140625 44.671875 30.421875 
Q 50.828125 17.625 57.5625 17.625 
Q 62.453125 17.625 64.9375 21.140625 
Q 67.625 24.90625 67.625 29.890625 
Q 67.625 35.359375 64.9375 38.71875 
Q 62.203125 42.140625 57.5625 42.140625 
z
" id="DejaVuSans-8734"/>
      </defs>
      <use xlink:href="#DejaVuSans-65"/>
      <use x="68.408203" xlink:href="#DejaVuSans-32"/>
      <use x="100.195312" xlink:href="#DejaVuSans-58"/>
      <use x="133.886719" xlink:href="#DejaVuSans-32"/>
      <use x="165.673828" xlink:href="#DejaVuSans-8734"/>
     </g>
    </g>
   </g>
   <g id="text_11">
    <g clip-path="url(#p94d0d98411)">
     <!-- B : ∞ -->
     <g style="fill:#ffffff;" transform="translate(120.615568 27.734773)scale(0.08 -0.08)">
      <defs>
       <path d="M 19.671875 34.8125 
L 19.671875 8.109375 
L 35.5 8.109375 
Q 43.453125 8.109375 47.28125 11.40625 
Q 51.125 14.703125 51.125 21.484375 
Q 51.125 28.328125 47.28125 31.5625 
Q 43.453125 34.8125 35.5 34.8125 
z
M 19.671875 64.796875 
L 19.671875 42.828125 
L 34.28125 42.828125 
Q 41.5 42.828125 45.03125 45.53125 
Q 48.578125 48.25 48.578125 53.8125 
Q 48.578125 59.328125 45.03125 62.0625 
Q 41.5 64.796875 34.28125 64.796875 
z
M 9.8125 72.90625 
L 35.015625 72.90625 
Q 46.296875 72.90625 52.390625 68.21875 
Q 58.5 63.53125 58.5 54.890625 
Q 58.5 48.1875 55.375 44.234375 
Q 52.25 40.28125 46.1875 39.3125 
Q 53.46875 37.75 57.5 32.78125 
Q 61.53125 27.828125 61.53125 20.40625 
Q 61.53125 10.640625 54.890625 5.3125 
Q 48.25 0 35.984375 0 
L 9.8125 0 
z
" id="DejaVuSans-66"/>
      </defs>
      <use xlink:href="#DejaVuSans-66"/>
      <use x="68.603516" xlink:href="#DejaVuSans-32"/>
      <use x="100.390625" xlink:href="#DejaVuSans-58"/>
      <use x="134.082031" xlink:href="#DejaVuSans-32"/>
      <use x="165.869141" xlink:href="#DejaVuSans-8734"/>
     </g>
    </g>
   </g>
   <g id="text_12">
    <g clip-path="url(#p94d0d98411)">
     <!-- C : ∞ -->
     <g style="fill:#ffffff;" transform="translate(120.566818 322.280227)scale(0.08 -0.08)">
      <defs>
       <path d="M 64.40625 67.28125 
L 64.40625 56.890625 
Q 59.421875 61.53125 53.78125 63.8125 
Q 48.140625 66.109375 41.796875 66.109375 
Q 29.296875 66.109375 22.65625 58.46875 
Q 16.015625 50.828125 16.015625 36.375 
Q 16.015625 21.96875 22.65625 14.328125 
Q 29.296875 6.6875 41.796875 6.6875 
Q 48.140625 6.6875 53.78125 8.984375 
Q 59.421875 11.28125 64.40625 15.921875 
L 64.40625 5.609375 
Q 59.234375 2.09375 53.4375 0.328125 
Q 47.65625 -1.421875 41.21875 -1.421875 
Q 24.65625 -1.421875 15.125 8.703125 
Q 5.609375 18.84375 5.609375 36.375 
Q 5.609375 53.953125 15.125 64.078125 
Q 24.65625 74.21875 41.21875 74.21875 
Q 47.75 74.21875 53.53125 72.484375 
Q 59.328125 70.75 64.40625 67.28125 
z
" id="DejaVuSans-67"/>
      </defs>
      <use xlink:href="#DejaVuSans-67"/>
      <use x="69.824219" xlink:href="#DejaVuSans-32"/>
      <use x="101.611328" xlink:href="#DejaVuSans-58"/>
      <use x="135.302734" xlink:href="#DejaVuSans-32"/>
      <use x="167.089844" xlink:href="#DejaVuSans-8734"/>
     </g>
    </g>
   </g>
   <g id="text_13">
    <g clip-path="url(#p94d0d98411)">
     <!-- D : ∞ -->
     <g style="fill:#ffffff;" transform="translate(220.098125 175.0075)scale(0.08 -0.08)">
      <defs>
       <path d="M 19.671875 64.796875 
L 19.671875 8.109375 
L 31.59375 8.109375 
Q 46.6875 8.109375 53.6875 14.9375 
Q 60.6875 21.78125 60.6875 36.53125 
Q 60.6875 51.171875 53.6875 57.984375 
Q 46.6875 64.796875 31.59375 64.796875 
z
M 9.8125 72.90625 
L 30.078125 72.90625 
Q 51.265625 72.90625 61.171875 64.09375 
Q 71.09375 55.28125 71.09375 36.53125 
Q 71.09375 17.671875 61.125 8.828125 
Q 51.171875 0 30.078125 0 
L 9.8125 0 
z
" id="DejaVuSans-68"/>
      </defs>
      <use xlink:href="#DejaVuSans-68"/>
      <use x="77.001953" xlink:href="#DejaVuSans-32"/>
      <use x="108.789062" xlink:href="#DejaVuSans-58"/>
      <use x="142.480469" xlink:href="#DejaVuSans-32"/>
      <use x="174.267578" xlink:href="#DejaVuSans-8734"/>
     </g>
    </g>
   </g>
   <g id="text_14">
    <g clip-path="url(#p94d0d98411)">
     <!-- E : ∞ -->
     <g style="fill:#ffffff;" transform="translate(320.468807 27.734773)scale(0.08 -0.08)">
      <defs>
       <path d="M 9.8125 72.90625 
L 55.90625 72.90625 
L 55.90625 64.59375 
L 19.671875 64.59375 
L 19.671875 43.015625 
L 54.390625 43.015625 
L 54.390625 34.71875 
L 19.671875 34.71875 
L 19.671875 8.296875 
L 56.78125 8.296875 
L 56.78125 0 
L 9.8125 0 
z
" id="DejaVuSans-69"/>
      </defs>
      <use xlink:href="#DejaVuSans-69"/>
      <use x="63.183594" xlink:href="#DejaVuSans-32"/>
      <use x="94.970703" xlink:href="#DejaVuSans-58"/>
      <use x="128.662109" xlink:href="#DejaVuSans-32"/>
      <use x="160.449219" xlink:href="#DejaVuSans-8734"/>
     </g>
    </g>
   </g>
   <g id="text_15">
    <g clip-path="url(#p94d0d98411)">
     <!-- F : ∞ -->
     <g style="fill:#ffffff;" transform="translate(320.695682 322.280227)scale(0.08 -0.08)">
      <defs>
       <path d="M 9.8125 72.90625 
L 51.703125 72.90625 
L 51.703125 64.59375 
L 19.671875 64.59375 
L 19.671875 43.109375 
L 48.578125 43.109375 
L 48.578125 34.8125 
L 19.671875 34.8125 
L 19.671875 0 
L 9.8125 0 
z
" id="DejaVuSans-70"/>
      </defs>
      <use xlink:href="#DejaVuSans-70"/>
      <use x="57.519531" xlink:href="#DejaVuSans-32"/>
      <use x="89.306641" xlink:href="#DejaVuSans-58"/>
      <use x="122.998047" xlink:href="#DejaVuSans-32"/>
      <use x="154.785156" xlink:href="#DejaVuSans-8734"/>
     </g>
    </g>
   </g>
   <g id="text_16">
    <g clip-path="url(#p94d0d98411)">
     <!-- G : ∞ -->
     <g style="fill:#ffffff;" transform="translate(419.715114 175.0075)scale(0.08 -0.08)">
      <defs>
       <path d="M 59.515625 10.40625 
L 59.515625 29.984375 
L 43.40625 29.984375 
L 43.40625 38.09375 
L 69.28125 38.09375 
L 69.28125 6.78125 
Q 63.578125 2.734375 56.6875 0.65625 
Q 49.8125 -1.421875 42 -1.421875 
Q 24.90625 -1.421875 15.25 8.5625 
Q 5.609375 18.5625 5.609375 36.375 
Q 5.609375 54.25 15.25 64.234375 
Q 24.90625 74.21875 42 74.21875 
Q 49.125 74.21875 55.546875 72.453125 
Q 61.96875 70.703125 67.390625 67.28125 
L 67.390625 56.78125 
Q 61.921875 61.421875 55.765625 63.765625 
Q 49.609375 66.109375 42.828125 66.109375 
Q 29.4375 66.109375 22.71875 58.640625 
Q 16.015625 51.171875 16.015625 36.375 
Q 16.015625 21.625 22.71875 14.15625 
Q 29.4375 6.6875 42.828125 6.6875 
Q 48.046875 6.6875 52.140625 7.59375 
Q 56.25 8.5 59.515625 10.40625 
z
" id="DejaVuSans-71"/>
      </defs>
      <use xlink:href="#DejaVuSans-71"/>
      <use x="77.490234" xlink:href="#DejaVuSans-32"/>
      <use x="109.277344" xlink:href="#DejaVuSans-58"/>
      <use x="142.96875" xlink:href="#DejaVuSans-32"/>
      <use x="174.755859" xlink:href="#DejaVuSans-8734"/>
     </g>
    </g>
   </g>
  </g>
 </g>
 <defs>
  <clipPath id="p94d0d98411">
   <rect height="324" width="439.2" x="10.8" y="10.8"/>
  </clipPath>
 </defs>
</svg>
